<mxfile host="Electron" modified="2024-03-07T04:48:54.337Z" agent="Mozilla/5.0 (Macintosh; Intel Mac OS X 10_15_7) AppleWebKit/537.36 (KHTML, like Gecko) draw.io/23.1.5 Chrome/120.0.6099.109 Electron/28.1.0 Safari/537.36" etag="0lnSpuO9iZej9q051V7g" version="23.1.5" type="device" pages="5">
  <diagram id="R2lEEEUBdFMjLlhIrx00" name="Basic shapes">
    <mxGraphModel dx="2052" dy="1382" grid="0" gridSize="10" guides="1" tooltips="1" connect="1" arrows="1" fold="1" page="1" pageScale="1" pageWidth="1100" pageHeight="1200" background="#000000" math="0" shadow="0" extFonts="Permanent Marker^https://fonts.googleapis.com/css?family=Permanent+Marker">
      <root>
        <mxCell id="0" />
        <mxCell id="1" parent="0" />
        <mxCell id="sWjn2z7VL8cJMrQNKD__-4" value="AssignmentDescription" style="ellipse;whiteSpace=wrap;html=1;align=center;strokeColor=#FFFFFF;fillColor=none;fontColor=#FFFFFF;" parent="1" vertex="1">
          <mxGeometry x="900" y="531" width="150" height="40" as="geometry" />
        </mxCell>
        <mxCell id="sWjn2z7VL8cJMrQNKD__-5" value="AssignmentID" style="ellipse;whiteSpace=wrap;html=1;align=center;fontStyle=4;strokeColor=#FFFFFF;fillColor=none;fontColor=#FFFFFF;" parent="1" vertex="1">
          <mxGeometry x="919" y="448" width="100" height="40" as="geometry" />
        </mxCell>
        <mxCell id="I_56BF-7_PQjTVBD-00G-46" style="edgeStyle=none;rounded=0;orthogonalLoop=1;jettySize=auto;html=1;exitX=1;exitY=0.5;exitDx=0;exitDy=0;entryX=0;entryY=0.5;entryDx=0;entryDy=0;dashed=1;strokeColor=#FFFFFF;align=center;verticalAlign=middle;fontFamily=Helvetica;fontSize=11;fontColor=default;labelBackgroundColor=default;endArrow=none;endFill=0;" parent="1" source="sWjn2z7VL8cJMrQNKD__-184" target="GU0ft3rcJpjGFEKYJ0Fs-4" edge="1">
          <mxGeometry relative="1" as="geometry" />
        </mxCell>
        <mxCell id="Ub3H8S8I73RoRwl3eX0K-3" value="M" style="edgeLabel;html=1;align=center;verticalAlign=middle;resizable=0;points=[];fontFamily=Helvetica;fontSize=11;fontColor=#FFFFFF;labelBackgroundColor=none;fillColor=none;gradientColor=none;" parent="I_56BF-7_PQjTVBD-00G-46" vertex="1" connectable="0">
          <mxGeometry x="-0.1" y="1" relative="1" as="geometry">
            <mxPoint x="-2" y="-12" as="offset" />
          </mxGeometry>
        </mxCell>
        <mxCell id="sWjn2z7VL8cJMrQNKD__-184" value="is divided into" style="shape=rhombus;perimeter=rhombusPerimeter;whiteSpace=wrap;html=1;align=center;strokeColor=#FFFFFF;fillColor=none;fontColor=#FFFFFF;" parent="1" vertex="1">
          <mxGeometry x="398" y="253" width="120" height="60" as="geometry" />
        </mxCell>
        <mxCell id="sWjn2z7VL8cJMrQNKD__-186" value="" style="group" parent="1" vertex="1" connectable="0">
          <mxGeometry x="826" y="240" width="100" height="40" as="geometry" />
        </mxCell>
        <mxCell id="sWjn2z7VL8cJMrQNKD__-8" value="&lt;span style=&quot;border-bottom: 1px dotted&quot;&gt;CourseID&lt;/span&gt;" style="ellipse;whiteSpace=wrap;html=1;align=center;strokeColor=#FFFFFF;fillColor=none;fontColor=#FFFFFF;" parent="sWjn2z7VL8cJMrQNKD__-186" vertex="1">
          <mxGeometry width="100" height="40" as="geometry" />
        </mxCell>
        <mxCell id="sWjn2z7VL8cJMrQNKD__-9" value="" style="endArrow=none;html=1;fontColor=#FFFFFF;strokeColor=#FFFFFF;dashed=1;dashPattern=1 1;" parent="sWjn2z7VL8cJMrQNKD__-186" edge="1">
          <mxGeometry width="50" height="50" relative="1" as="geometry">
            <mxPoint x="20" y="31" as="sourcePoint" />
            <mxPoint x="80" y="31" as="targetPoint" />
          </mxGeometry>
        </mxCell>
        <mxCell id="GU0ft3rcJpjGFEKYJ0Fs-20" style="edgeStyle=none;rounded=0;orthogonalLoop=1;jettySize=auto;html=1;exitX=1;exitY=1;exitDx=0;exitDy=0;entryX=0;entryY=0.5;entryDx=0;entryDy=0;dashed=1;strokeColor=#FFFFFF;align=center;verticalAlign=middle;fontFamily=Helvetica;fontSize=11;fontColor=default;labelBackgroundColor=default;endArrow=none;endFill=0;" parent="1" source="GU0ft3rcJpjGFEKYJ0Fs-4" target="GU0ft3rcJpjGFEKYJ0Fs-19" edge="1">
          <mxGeometry relative="1" as="geometry" />
        </mxCell>
        <mxCell id="GU0ft3rcJpjGFEKYJ0Fs-41" style="edgeStyle=none;rounded=0;orthogonalLoop=1;jettySize=auto;html=1;exitX=1;exitY=0.75;exitDx=0;exitDy=0;entryX=0;entryY=0.5;entryDx=0;entryDy=0;dashed=1;strokeColor=#FFFFFF;align=center;verticalAlign=middle;fontFamily=Helvetica;fontSize=11;fontColor=default;labelBackgroundColor=default;endArrow=none;endFill=0;" parent="1" source="GU0ft3rcJpjGFEKYJ0Fs-4" target="sWjn2z7VL8cJMrQNKD__-8" edge="1">
          <mxGeometry relative="1" as="geometry" />
        </mxCell>
        <mxCell id="GU0ft3rcJpjGFEKYJ0Fs-45" style="edgeStyle=none;rounded=0;orthogonalLoop=1;jettySize=auto;html=1;exitX=1;exitY=0.5;exitDx=0;exitDy=0;entryX=0;entryY=0.5;entryDx=0;entryDy=0;dashed=1;strokeColor=#FFFFFF;align=center;verticalAlign=middle;fontFamily=Helvetica;fontSize=11;fontColor=default;labelBackgroundColor=default;endArrow=none;endFill=0;" parent="1" source="GU0ft3rcJpjGFEKYJ0Fs-4" target="GU0ft3rcJpjGFEKYJ0Fs-43" edge="1">
          <mxGeometry relative="1" as="geometry" />
        </mxCell>
        <mxCell id="GU0ft3rcJpjGFEKYJ0Fs-49" style="edgeStyle=none;rounded=0;orthogonalLoop=1;jettySize=auto;html=1;exitX=1;exitY=0.25;exitDx=0;exitDy=0;entryX=0;entryY=0.5;entryDx=0;entryDy=0;dashed=1;strokeColor=#FFFFFF;align=center;verticalAlign=middle;fontFamily=Helvetica;fontSize=11;fontColor=default;labelBackgroundColor=default;endArrow=none;endFill=0;" parent="1" source="GU0ft3rcJpjGFEKYJ0Fs-4" target="GU0ft3rcJpjGFEKYJ0Fs-47" edge="1">
          <mxGeometry relative="1" as="geometry" />
        </mxCell>
        <mxCell id="GU0ft3rcJpjGFEKYJ0Fs-64" style="edgeStyle=none;rounded=0;orthogonalLoop=1;jettySize=auto;html=1;exitX=1;exitY=0;exitDx=0;exitDy=0;entryX=0;entryY=0.5;entryDx=0;entryDy=0;dashed=1;strokeColor=#FFFFFF;align=center;verticalAlign=middle;fontFamily=Helvetica;fontSize=11;fontColor=default;labelBackgroundColor=default;endArrow=none;endFill=0;" parent="1" source="GU0ft3rcJpjGFEKYJ0Fs-4" target="GU0ft3rcJpjGFEKYJ0Fs-12" edge="1">
          <mxGeometry relative="1" as="geometry" />
        </mxCell>
        <mxCell id="GU0ft3rcJpjGFEKYJ0Fs-111" style="edgeStyle=none;rounded=0;orthogonalLoop=1;jettySize=auto;html=1;entryX=1;entryY=0.5;entryDx=0;entryDy=0;dashed=1;strokeColor=#FFFFFF;align=center;verticalAlign=middle;fontFamily=Helvetica;fontSize=11;fontColor=default;labelBackgroundColor=default;endArrow=none;endFill=0;" parent="1" target="GU0ft3rcJpjGFEKYJ0Fs-109" edge="1">
          <mxGeometry relative="1" as="geometry">
            <mxPoint x="672" y="234" as="sourcePoint" />
          </mxGeometry>
        </mxCell>
        <mxCell id="Ub3H8S8I73RoRwl3eX0K-5" value="M" style="edgeLabel;html=1;align=center;verticalAlign=middle;resizable=0;points=[];fontFamily=Helvetica;fontSize=11;fontColor=#FFFFFF;labelBackgroundColor=none;fillColor=none;gradientColor=none;" parent="GU0ft3rcJpjGFEKYJ0Fs-111" vertex="1" connectable="0">
          <mxGeometry x="-0.0378" y="2" relative="1" as="geometry">
            <mxPoint x="32" y="17" as="offset" />
          </mxGeometry>
        </mxCell>
        <mxCell id="GU0ft3rcJpjGFEKYJ0Fs-115" style="edgeStyle=none;rounded=0;orthogonalLoop=1;jettySize=auto;html=1;exitX=0.5;exitY=1;exitDx=0;exitDy=0;entryX=0.5;entryY=0;entryDx=0;entryDy=0;dashed=1;strokeColor=#FFFFFF;align=center;verticalAlign=middle;fontFamily=Helvetica;fontSize=11;fontColor=default;labelBackgroundColor=default;endArrow=none;endFill=0;" parent="1" source="GU0ft3rcJpjGFEKYJ0Fs-4" target="GU0ft3rcJpjGFEKYJ0Fs-114" edge="1">
          <mxGeometry relative="1" as="geometry" />
        </mxCell>
        <mxCell id="Ub3H8S8I73RoRwl3eX0K-9" value="1" style="edgeLabel;html=1;align=center;verticalAlign=middle;resizable=0;points=[];fontFamily=Helvetica;fontSize=11;fontColor=#FFFFFF;labelBackgroundColor=none;fillColor=none;gradientColor=none;" parent="GU0ft3rcJpjGFEKYJ0Fs-115" vertex="1" connectable="0">
          <mxGeometry x="0.1232" y="-1" relative="1" as="geometry">
            <mxPoint x="11" y="-31" as="offset" />
          </mxGeometry>
        </mxCell>
        <mxCell id="GU0ft3rcJpjGFEKYJ0Fs-4" value="Sections" style="whiteSpace=wrap;html=1;align=center;strokeColor=#FFFFFF;fillColor=none;fontColor=#FFFFFF;" parent="1" vertex="1">
          <mxGeometry x="630" y="240" width="100" height="40" as="geometry" />
        </mxCell>
        <mxCell id="GU0ft3rcJpjGFEKYJ0Fs-18" style="rounded=0;orthogonalLoop=1;jettySize=auto;html=1;exitX=1;exitY=0.25;exitDx=0;exitDy=0;entryX=0;entryY=0.5;entryDx=0;entryDy=0;dashed=1;strokeColor=#FFFFFF;align=center;verticalAlign=middle;fontFamily=Helvetica;fontSize=11;fontColor=default;labelBackgroundColor=default;endArrow=none;endFill=0;" parent="1" source="GU0ft3rcJpjGFEKYJ0Fs-5" target="sWjn2z7VL8cJMrQNKD__-4" edge="1">
          <mxGeometry relative="1" as="geometry" />
        </mxCell>
        <mxCell id="GU0ft3rcJpjGFEKYJ0Fs-116" style="edgeStyle=none;rounded=0;orthogonalLoop=1;jettySize=auto;html=1;exitX=0.5;exitY=0;exitDx=0;exitDy=0;entryX=0.5;entryY=1;entryDx=0;entryDy=0;dashed=1;strokeColor=#FFFFFF;align=center;verticalAlign=middle;fontFamily=Helvetica;fontSize=11;fontColor=default;labelBackgroundColor=default;endArrow=none;endFill=0;" parent="1" source="GU0ft3rcJpjGFEKYJ0Fs-5" target="GU0ft3rcJpjGFEKYJ0Fs-114" edge="1">
          <mxGeometry relative="1" as="geometry" />
        </mxCell>
        <mxCell id="I_56BF-7_PQjTVBD-00G-56" value="M" style="edgeLabel;html=1;align=center;verticalAlign=middle;resizable=0;points=[];fontFamily=Helvetica;fontSize=11;fontColor=#FFFFFF;labelBackgroundColor=none;" parent="GU0ft3rcJpjGFEKYJ0Fs-116" vertex="1" connectable="0">
          <mxGeometry x="0.2376" y="-2" relative="1" as="geometry">
            <mxPoint x="6" y="47" as="offset" />
          </mxGeometry>
        </mxCell>
        <mxCell id="GU0ft3rcJpjGFEKYJ0Fs-117" style="edgeStyle=none;rounded=0;orthogonalLoop=1;jettySize=auto;html=1;exitX=1;exitY=0;exitDx=0;exitDy=0;entryX=0;entryY=0.5;entryDx=0;entryDy=0;dashed=1;strokeColor=#FFFFFF;align=center;verticalAlign=middle;fontFamily=Helvetica;fontSize=11;fontColor=default;labelBackgroundColor=default;endArrow=none;endFill=0;" parent="1" source="GU0ft3rcJpjGFEKYJ0Fs-5" target="sWjn2z7VL8cJMrQNKD__-5" edge="1">
          <mxGeometry relative="1" as="geometry" />
        </mxCell>
        <mxCell id="GU0ft3rcJpjGFEKYJ0Fs-121" style="edgeStyle=none;rounded=0;orthogonalLoop=1;jettySize=auto;html=1;exitX=0.5;exitY=1;exitDx=0;exitDy=0;entryX=1;entryY=0.5;entryDx=0;entryDy=0;dashed=1;strokeColor=#FFFFFF;align=center;verticalAlign=middle;fontFamily=Helvetica;fontSize=11;fontColor=default;labelBackgroundColor=default;endArrow=none;endFill=0;" parent="1" source="GU0ft3rcJpjGFEKYJ0Fs-5" target="GU0ft3rcJpjGFEKYJ0Fs-120" edge="1">
          <mxGeometry relative="1" as="geometry" />
        </mxCell>
        <mxCell id="Na-uwvMIYKhtBtssIrt4-1" value="1" style="edgeLabel;html=1;align=center;verticalAlign=middle;resizable=0;points=[];fontFamily=Helvetica;fontSize=11;fontColor=#FFFFFF;labelBackgroundColor=none;fillColor=none;gradientColor=none;" parent="GU0ft3rcJpjGFEKYJ0Fs-121" vertex="1" connectable="0">
          <mxGeometry x="-0.1404" y="-1" relative="1" as="geometry">
            <mxPoint x="1" y="-12" as="offset" />
          </mxGeometry>
        </mxCell>
        <mxCell id="-SJ-B6quabVOZGCNZFLF-6" style="edgeStyle=none;rounded=0;orthogonalLoop=1;jettySize=auto;html=1;exitX=0.75;exitY=1;exitDx=0;exitDy=0;entryX=0.5;entryY=0;entryDx=0;entryDy=0;dashed=1;strokeColor=#FFFFFF;align=center;verticalAlign=middle;fontFamily=Helvetica;fontSize=11;fontColor=default;labelBackgroundColor=default;endArrow=none;endFill=0;" parent="1" source="GU0ft3rcJpjGFEKYJ0Fs-5" target="I_56BF-7_PQjTVBD-00G-48" edge="1">
          <mxGeometry relative="1" as="geometry" />
        </mxCell>
        <mxCell id="eoxjxHQQ1nFGvhZmt7ln-1" value="M" style="edgeLabel;html=1;align=center;verticalAlign=middle;resizable=0;points=[];fontFamily=Helvetica;fontSize=11;fontColor=#FFFFFF;labelBackgroundColor=none;fillColor=none;gradientColor=none;" parent="-SJ-B6quabVOZGCNZFLF-6" vertex="1" connectable="0">
          <mxGeometry x="-0.0959" y="2" relative="1" as="geometry">
            <mxPoint x="5" y="-18" as="offset" />
          </mxGeometry>
        </mxCell>
        <mxCell id="Ungp7UJ532jxS2_y9dqf-5" style="edgeStyle=none;rounded=0;orthogonalLoop=1;jettySize=auto;html=1;exitX=1;exitY=1;exitDx=0;exitDy=0;entryX=0;entryY=0.5;entryDx=0;entryDy=0;dashed=1;strokeColor=#FFFFFF;align=center;verticalAlign=middle;fontFamily=Helvetica;fontSize=11;fontColor=#FFFFFF;labelBackgroundColor=none;endArrow=none;endFill=0;" parent="1" source="GU0ft3rcJpjGFEKYJ0Fs-5" target="Ungp7UJ532jxS2_y9dqf-4" edge="1">
          <mxGeometry relative="1" as="geometry" />
        </mxCell>
        <mxCell id="o-OZb3glfxWIwdZx7r35-15" style="edgeStyle=none;rounded=0;orthogonalLoop=1;jettySize=auto;html=1;exitX=1;exitY=0.75;exitDx=0;exitDy=0;entryX=0;entryY=0.5;entryDx=0;entryDy=0;dashed=1;strokeColor=#FFFFFF;align=center;verticalAlign=middle;fontFamily=Helvetica;fontSize=11;fontColor=#FFFFFF;labelBackgroundColor=none;endArrow=none;endFill=0;" parent="1" source="GU0ft3rcJpjGFEKYJ0Fs-5" target="o-OZb3glfxWIwdZx7r35-13" edge="1">
          <mxGeometry relative="1" as="geometry" />
        </mxCell>
        <mxCell id="GU0ft3rcJpjGFEKYJ0Fs-5" value="Assignments" style="whiteSpace=wrap;html=1;align=center;strokeColor=#FFFFFF;fillColor=none;fontColor=#FFFFFF;" parent="1" vertex="1">
          <mxGeometry x="630" y="556" width="100" height="40" as="geometry" />
        </mxCell>
        <mxCell id="GU0ft3rcJpjGFEKYJ0Fs-12" value="SectionID" style="ellipse;whiteSpace=wrap;html=1;align=center;fontStyle=4;strokeColor=#FFFFFF;fillColor=none;fontColor=#FFFFFF;" parent="1" vertex="1">
          <mxGeometry x="840" y="70" width="100" height="40" as="geometry" />
        </mxCell>
        <mxCell id="GU0ft3rcJpjGFEKYJ0Fs-19" value="Assignment_topic" style="ellipse;whiteSpace=wrap;html=1;align=center;strokeColor=#FFFFFF;fillColor=none;fontColor=#FFFFFF;" parent="1" vertex="1">
          <mxGeometry x="840" y="307" width="100" height="40" as="geometry" />
        </mxCell>
        <mxCell id="GU0ft3rcJpjGFEKYJ0Fs-22" style="rounded=0;orthogonalLoop=1;jettySize=auto;html=1;exitX=0.5;exitY=1;exitDx=0;exitDy=0;entryX=0.5;entryY=0;entryDx=0;entryDy=0;dashed=1;strokeColor=#FFFFFF;align=center;verticalAlign=middle;fontFamily=Helvetica;fontSize=11;fontColor=default;labelBackgroundColor=default;endArrow=none;endFill=0;" parent="1" source="GU0ft3rcJpjGFEKYJ0Fs-23" target="GU0ft3rcJpjGFEKYJ0Fs-25" edge="1">
          <mxGeometry relative="1" as="geometry" />
        </mxCell>
        <mxCell id="GU0ft3rcJpjGFEKYJ0Fs-66" style="edgeStyle=none;rounded=0;orthogonalLoop=1;jettySize=auto;html=1;exitX=1;exitY=0.75;exitDx=0;exitDy=0;entryX=0;entryY=0.5;entryDx=0;entryDy=0;dashed=1;strokeColor=#FFFFFF;align=center;verticalAlign=middle;fontFamily=Helvetica;fontSize=11;fontColor=default;labelBackgroundColor=default;endArrow=none;endFill=0;" parent="1" source="GU0ft3rcJpjGFEKYJ0Fs-23" target="GU0ft3rcJpjGFEKYJ0Fs-24" edge="1">
          <mxGeometry relative="1" as="geometry" />
        </mxCell>
        <mxCell id="GU0ft3rcJpjGFEKYJ0Fs-67" style="edgeStyle=none;rounded=0;orthogonalLoop=1;jettySize=auto;html=1;exitX=0.75;exitY=1;exitDx=0;exitDy=0;entryX=0.5;entryY=0;entryDx=0;entryDy=0;dashed=1;strokeColor=#FFFFFF;align=center;verticalAlign=middle;fontFamily=Helvetica;fontSize=11;fontColor=default;labelBackgroundColor=default;endArrow=none;endFill=0;" parent="1" source="GU0ft3rcJpjGFEKYJ0Fs-23" target="GU0ft3rcJpjGFEKYJ0Fs-60" edge="1">
          <mxGeometry relative="1" as="geometry" />
        </mxCell>
        <mxCell id="GU0ft3rcJpjGFEKYJ0Fs-122" style="edgeStyle=none;rounded=0;orthogonalLoop=1;jettySize=auto;html=1;exitX=0.5;exitY=0;exitDx=0;exitDy=0;entryX=0;entryY=0.5;entryDx=0;entryDy=0;dashed=1;strokeColor=#FFFFFF;align=center;verticalAlign=middle;fontFamily=Helvetica;fontSize=11;fontColor=default;labelBackgroundColor=default;endArrow=none;endFill=0;" parent="1" source="GU0ft3rcJpjGFEKYJ0Fs-23" target="GU0ft3rcJpjGFEKYJ0Fs-120" edge="1">
          <mxGeometry relative="1" as="geometry" />
        </mxCell>
        <mxCell id="Na-uwvMIYKhtBtssIrt4-2" value="1" style="edgeLabel;html=1;align=center;verticalAlign=middle;resizable=0;points=[];fontFamily=Helvetica;fontSize=11;fontColor=#FFFFFF;labelBackgroundColor=none;fillColor=none;gradientColor=none;" parent="GU0ft3rcJpjGFEKYJ0Fs-122" vertex="1" connectable="0">
          <mxGeometry x="-0.1369" y="-2" relative="1" as="geometry">
            <mxPoint x="-16" y="-5" as="offset" />
          </mxGeometry>
        </mxCell>
        <mxCell id="GU0ft3rcJpjGFEKYJ0Fs-23" value="Readings" style="whiteSpace=wrap;html=1;align=center;strokeColor=#FFFFFF;fillColor=none;fontColor=#FFFFFF;" parent="1" vertex="1">
          <mxGeometry x="373" y="740" width="100" height="40" as="geometry" />
        </mxCell>
        <mxCell id="GU0ft3rcJpjGFEKYJ0Fs-24" value="ReadingID" style="ellipse;whiteSpace=wrap;html=1;align=center;fontStyle=4;strokeColor=#FFFFFF;fillColor=none;fontColor=#FFFFFF;" parent="1" vertex="1">
          <mxGeometry x="569" y="800" width="100" height="40" as="geometry" />
        </mxCell>
        <mxCell id="GU0ft3rcJpjGFEKYJ0Fs-25" value="MaterialDescription" style="ellipse;whiteSpace=wrap;html=1;align=center;strokeColor=#FFFFFF;fillColor=none;fontColor=#FFFFFF;" parent="1" vertex="1">
          <mxGeometry x="320.5" y="853" width="120" height="40" as="geometry" />
        </mxCell>
        <mxCell id="GU0ft3rcJpjGFEKYJ0Fs-26" value="CourseName" style="ellipse;whiteSpace=wrap;html=1;align=center;strokeColor=#FFFFFF;fillColor=none;fontColor=#FFFFFF;" parent="1" vertex="1">
          <mxGeometry x="28" y="313" width="100" height="40" as="geometry" />
        </mxCell>
        <mxCell id="GU0ft3rcJpjGFEKYJ0Fs-27" value="CourseID" style="ellipse;whiteSpace=wrap;html=1;align=center;fontStyle=4;strokeColor=#FFFFFF;fillColor=none;fontColor=#FFFFFF;" parent="1" vertex="1">
          <mxGeometry x="28" y="254" width="100" height="40" as="geometry" />
        </mxCell>
        <mxCell id="GU0ft3rcJpjGFEKYJ0Fs-95" style="edgeStyle=none;rounded=0;orthogonalLoop=1;jettySize=auto;html=1;exitX=0;exitY=1;exitDx=0;exitDy=0;entryX=1;entryY=0.5;entryDx=0;entryDy=0;dashed=1;strokeColor=#FFFFFF;align=center;verticalAlign=middle;fontFamily=Helvetica;fontSize=11;fontColor=default;labelBackgroundColor=default;endArrow=none;endFill=0;" parent="1" source="GU0ft3rcJpjGFEKYJ0Fs-30" target="GU0ft3rcJpjGFEKYJ0Fs-94" edge="1">
          <mxGeometry relative="1" as="geometry" />
        </mxCell>
        <mxCell id="GU0ft3rcJpjGFEKYJ0Fs-134" style="edgeStyle=none;rounded=0;orthogonalLoop=1;jettySize=auto;html=1;exitX=0;exitY=0.5;exitDx=0;exitDy=0;entryX=1;entryY=0.5;entryDx=0;entryDy=0;dashed=1;strokeColor=#FFFFFF;align=center;verticalAlign=middle;fontFamily=Helvetica;fontSize=11;fontColor=default;labelBackgroundColor=default;endArrow=none;endFill=0;" parent="1" source="GU0ft3rcJpjGFEKYJ0Fs-30" target="GU0ft3rcJpjGFEKYJ0Fs-34" edge="1">
          <mxGeometry relative="1" as="geometry" />
        </mxCell>
        <mxCell id="I_56BF-7_PQjTVBD-00G-12" style="edgeStyle=none;rounded=0;orthogonalLoop=1;jettySize=auto;html=1;exitX=1;exitY=0.5;exitDx=0;exitDy=0;entryX=0;entryY=0.5;entryDx=0;entryDy=0;dashed=1;strokeColor=#FFFFFF;align=center;verticalAlign=middle;fontFamily=Helvetica;fontSize=11;fontColor=default;labelBackgroundColor=default;endArrow=none;endFill=0;" parent="1" source="GU0ft3rcJpjGFEKYJ0Fs-30" target="I_56BF-7_PQjTVBD-00G-8" edge="1">
          <mxGeometry relative="1" as="geometry" />
        </mxCell>
        <mxCell id="dTYZy2Bea9wpLuqC7pRo-3" value="M" style="edgeLabel;html=1;align=center;verticalAlign=middle;resizable=0;points=[];fontFamily=Helvetica;fontSize=11;fontColor=#FFFFFF;labelBackgroundColor=none;fillColor=none;gradientColor=none;" parent="I_56BF-7_PQjTVBD-00G-12" vertex="1" connectable="0">
          <mxGeometry x="-0.2234" y="1" relative="1" as="geometry">
            <mxPoint x="-11" y="-10" as="offset" />
          </mxGeometry>
        </mxCell>
        <mxCell id="I_56BF-7_PQjTVBD-00G-15" style="edgeStyle=none;rounded=0;orthogonalLoop=1;jettySize=auto;html=1;exitX=0.5;exitY=1;exitDx=0;exitDy=0;entryX=0.5;entryY=0;entryDx=0;entryDy=0;dashed=1;strokeColor=#FFFFFF;align=center;verticalAlign=middle;fontFamily=Helvetica;fontSize=11;fontColor=default;labelBackgroundColor=default;endArrow=none;endFill=0;" parent="1" source="GU0ft3rcJpjGFEKYJ0Fs-30" target="I_56BF-7_PQjTVBD-00G-14" edge="1">
          <mxGeometry relative="1" as="geometry" />
        </mxCell>
        <mxCell id="dTYZy2Bea9wpLuqC7pRo-1" value="M" style="edgeLabel;html=1;align=center;verticalAlign=middle;resizable=0;points=[];fontFamily=Helvetica;fontSize=11;fontColor=#FFFFFF;labelBackgroundColor=none;fillColor=none;gradientColor=none;" parent="I_56BF-7_PQjTVBD-00G-15" vertex="1" connectable="0">
          <mxGeometry x="-0.462" y="-2" relative="1" as="geometry">
            <mxPoint x="-10" y="13" as="offset" />
          </mxGeometry>
        </mxCell>
        <mxCell id="eoxjxHQQ1nFGvhZmt7ln-3" style="edgeStyle=none;rounded=0;orthogonalLoop=1;jettySize=auto;html=1;exitX=0.25;exitY=1;exitDx=0;exitDy=0;entryX=1;entryY=0.5;entryDx=0;entryDy=0;dashed=1;strokeColor=#FFFFFF;align=center;verticalAlign=middle;fontFamily=Helvetica;fontSize=11;fontColor=#FFFFFF;labelBackgroundColor=none;endArrow=none;endFill=0;" parent="1" source="GU0ft3rcJpjGFEKYJ0Fs-30" target="eoxjxHQQ1nFGvhZmt7ln-2" edge="1">
          <mxGeometry relative="1" as="geometry" />
        </mxCell>
        <mxCell id="GU0ft3rcJpjGFEKYJ0Fs-30" value="Professors" style="whiteSpace=wrap;html=1;align=center;strokeColor=#FFFFFF;fillColor=none;fontColor=#FFFFFF;" parent="1" vertex="1">
          <mxGeometry x="240" y="531" width="75" height="40" as="geometry" />
        </mxCell>
        <mxCell id="GU0ft3rcJpjGFEKYJ0Fs-31" style="rounded=0;orthogonalLoop=1;jettySize=auto;html=1;exitX=0;exitY=0.25;exitDx=0;exitDy=0;entryX=1;entryY=0.5;entryDx=0;entryDy=0;strokeColor=#FFFFFF;dashed=1;endArrow=none;endFill=0;" parent="1" source="GU0ft3rcJpjGFEKYJ0Fs-33" target="GU0ft3rcJpjGFEKYJ0Fs-27" edge="1">
          <mxGeometry relative="1" as="geometry" />
        </mxCell>
        <mxCell id="GU0ft3rcJpjGFEKYJ0Fs-32" style="rounded=0;orthogonalLoop=1;jettySize=auto;html=1;exitX=0;exitY=0.75;exitDx=0;exitDy=0;dashed=1;strokeColor=#FFFFFF;align=center;verticalAlign=middle;fontFamily=Helvetica;fontSize=11;fontColor=default;labelBackgroundColor=default;endArrow=none;endFill=0;entryX=1;entryY=0.5;entryDx=0;entryDy=0;" parent="1" source="GU0ft3rcJpjGFEKYJ0Fs-33" target="GU0ft3rcJpjGFEKYJ0Fs-26" edge="1">
          <mxGeometry relative="1" as="geometry">
            <mxPoint x="126" y="294" as="targetPoint" />
          </mxGeometry>
        </mxCell>
        <mxCell id="GU0ft3rcJpjGFEKYJ0Fs-98" style="edgeStyle=none;rounded=0;orthogonalLoop=1;jettySize=auto;html=1;exitX=1;exitY=0.5;exitDx=0;exitDy=0;entryX=0;entryY=0.5;entryDx=0;entryDy=0;dashed=1;strokeColor=#FFFFFF;align=center;verticalAlign=middle;fontFamily=Helvetica;fontSize=11;fontColor=default;labelBackgroundColor=default;endArrow=none;endFill=0;" parent="1" source="GU0ft3rcJpjGFEKYJ0Fs-33" target="sWjn2z7VL8cJMrQNKD__-184" edge="1">
          <mxGeometry relative="1" as="geometry" />
        </mxCell>
        <mxCell id="Ub3H8S8I73RoRwl3eX0K-4" value="1" style="edgeLabel;html=1;align=center;verticalAlign=middle;resizable=0;points=[];fontFamily=Helvetica;fontSize=11;fontColor=#FFFFFF;labelBackgroundColor=none;fillColor=none;gradientColor=none;" parent="GU0ft3rcJpjGFEKYJ0Fs-98" vertex="1" connectable="0">
          <mxGeometry x="-0.3646" relative="1" as="geometry">
            <mxPoint x="2" y="-16" as="offset" />
          </mxGeometry>
        </mxCell>
        <mxCell id="GU0ft3rcJpjGFEKYJ0Fs-33" value="Courses" style="whiteSpace=wrap;html=1;align=center;strokeColor=#FFFFFF;fillColor=none;fontColor=#FFFFFF;" parent="1" vertex="1">
          <mxGeometry x="220.5" y="265" width="100" height="40" as="geometry" />
        </mxCell>
        <mxCell id="GU0ft3rcJpjGFEKYJ0Fs-34" value="ProfessorID" style="ellipse;whiteSpace=wrap;html=1;align=center;fontStyle=4;strokeColor=#FFFFFF;fillColor=none;fontColor=#FFFFFF;" parent="1" vertex="1">
          <mxGeometry x="36" y="445" width="100" height="40" as="geometry" />
        </mxCell>
        <mxCell id="GU0ft3rcJpjGFEKYJ0Fs-36" style="rounded=0;orthogonalLoop=1;jettySize=auto;html=1;exitX=0;exitY=0.25;exitDx=0;exitDy=0;entryX=1;entryY=0.5;entryDx=0;entryDy=0;strokeColor=#FFFFFF;dashed=1;endArrow=none;endFill=0;" parent="1" source="GU0ft3rcJpjGFEKYJ0Fs-38" target="GU0ft3rcJpjGFEKYJ0Fs-39" edge="1">
          <mxGeometry relative="1" as="geometry" />
        </mxCell>
        <mxCell id="GU0ft3rcJpjGFEKYJ0Fs-37" style="rounded=0;orthogonalLoop=1;jettySize=auto;html=1;exitX=0;exitY=0.75;exitDx=0;exitDy=0;entryX=1;entryY=0.5;entryDx=0;entryDy=0;dashed=1;strokeColor=#FFFFFF;align=center;verticalAlign=middle;fontFamily=Helvetica;fontSize=11;fontColor=default;labelBackgroundColor=default;endArrow=none;endFill=0;" parent="1" source="GU0ft3rcJpjGFEKYJ0Fs-38" target="GU0ft3rcJpjGFEKYJ0Fs-40" edge="1">
          <mxGeometry relative="1" as="geometry">
            <mxPoint x="160" y="604" as="targetPoint" />
          </mxGeometry>
        </mxCell>
        <mxCell id="GU0ft3rcJpjGFEKYJ0Fs-110" style="edgeStyle=none;rounded=0;orthogonalLoop=1;jettySize=auto;html=1;exitX=1;exitY=0.5;exitDx=0;exitDy=0;entryX=0;entryY=0.5;entryDx=0;entryDy=0;dashed=1;strokeColor=#FFFFFF;align=center;verticalAlign=middle;fontFamily=Helvetica;fontSize=11;fontColor=default;labelBackgroundColor=default;endArrow=none;endFill=0;" parent="1" source="GU0ft3rcJpjGFEKYJ0Fs-38" target="GU0ft3rcJpjGFEKYJ0Fs-109" edge="1">
          <mxGeometry relative="1" as="geometry" />
        </mxCell>
        <mxCell id="Ub3H8S8I73RoRwl3eX0K-8" value="1" style="edgeLabel;html=1;align=center;verticalAlign=middle;resizable=0;points=[];fontFamily=Helvetica;fontSize=11;fontColor=#FFFFFF;labelBackgroundColor=none;fillColor=none;gradientColor=none;" parent="GU0ft3rcJpjGFEKYJ0Fs-110" vertex="1" connectable="0">
          <mxGeometry x="-0.2054" y="-3" relative="1" as="geometry">
            <mxPoint x="-7" y="-12" as="offset" />
          </mxGeometry>
        </mxCell>
        <mxCell id="GU0ft3rcJpjGFEKYJ0Fs-38" value="Classrooms" style="whiteSpace=wrap;html=1;align=center;strokeColor=#FFFFFF;fillColor=none;fontColor=#FFFFFF;" parent="1" vertex="1">
          <mxGeometry x="238" y="95" width="100" height="40" as="geometry" />
        </mxCell>
        <mxCell id="GU0ft3rcJpjGFEKYJ0Fs-39" value="ClassroomID" style="ellipse;whiteSpace=wrap;html=1;align=center;fontStyle=4;strokeColor=#FFFFFF;fillColor=none;fontColor=#FFFFFF;" parent="1" vertex="1">
          <mxGeometry x="48" y="55" width="100" height="40" as="geometry" />
        </mxCell>
        <mxCell id="GU0ft3rcJpjGFEKYJ0Fs-40" value="ClassroomLocation" style="ellipse;whiteSpace=wrap;html=1;align=center;strokeColor=#FFFFFF;fillColor=none;fontColor=#FFFFFF;" parent="1" vertex="1">
          <mxGeometry x="36" y="122" width="120" height="40" as="geometry" />
        </mxCell>
        <mxCell id="GU0ft3rcJpjGFEKYJ0Fs-42" value="" style="group" parent="1" vertex="1" connectable="0">
          <mxGeometry x="837" y="178" width="100" height="40" as="geometry" />
        </mxCell>
        <mxCell id="GU0ft3rcJpjGFEKYJ0Fs-43" value="&lt;span style=&quot;border-bottom: 1px dotted&quot;&gt;ProfessorID&lt;/span&gt;" style="ellipse;whiteSpace=wrap;html=1;align=center;strokeColor=#FFFFFF;fillColor=none;fontColor=#FFFFFF;" parent="GU0ft3rcJpjGFEKYJ0Fs-42" vertex="1">
          <mxGeometry width="100" height="40" as="geometry" />
        </mxCell>
        <mxCell id="GU0ft3rcJpjGFEKYJ0Fs-44" value="" style="endArrow=none;html=1;fontColor=#FFFFFF;strokeColor=#FFFFFF;dashed=1;dashPattern=1 1;" parent="GU0ft3rcJpjGFEKYJ0Fs-42" edge="1">
          <mxGeometry width="50" height="50" relative="1" as="geometry">
            <mxPoint x="20" y="31" as="sourcePoint" />
            <mxPoint x="80" y="31" as="targetPoint" />
          </mxGeometry>
        </mxCell>
        <mxCell id="GU0ft3rcJpjGFEKYJ0Fs-46" value="" style="group" parent="1" vertex="1" connectable="0">
          <mxGeometry x="837" y="124" width="100" height="40" as="geometry" />
        </mxCell>
        <mxCell id="GU0ft3rcJpjGFEKYJ0Fs-47" value="&lt;span style=&quot;border-bottom: 1px dotted&quot;&gt;ClassroomID&lt;/span&gt;" style="ellipse;whiteSpace=wrap;html=1;align=center;strokeColor=#FFFFFF;fillColor=none;fontColor=#FFFFFF;" parent="GU0ft3rcJpjGFEKYJ0Fs-46" vertex="1">
          <mxGeometry width="100" height="40" as="geometry" />
        </mxCell>
        <mxCell id="GU0ft3rcJpjGFEKYJ0Fs-48" value="" style="endArrow=none;html=1;fontColor=#FFFFFF;strokeColor=#FFFFFF;dashed=1;dashPattern=1 1;" parent="GU0ft3rcJpjGFEKYJ0Fs-46" edge="1">
          <mxGeometry width="50" height="50" relative="1" as="geometry">
            <mxPoint x="20" y="31" as="sourcePoint" />
            <mxPoint x="80" y="31" as="targetPoint" />
          </mxGeometry>
        </mxCell>
        <mxCell id="GU0ft3rcJpjGFEKYJ0Fs-53" style="edgeStyle=none;rounded=0;orthogonalLoop=1;jettySize=auto;html=1;exitX=1;exitY=1;exitDx=0;exitDy=0;entryX=1;entryY=0.75;entryDx=0;entryDy=0;dashed=1;strokeColor=#FFFFFF;align=center;verticalAlign=middle;fontFamily=Helvetica;fontSize=11;fontColor=default;labelBackgroundColor=default;endArrow=none;endFill=0;" parent="1" source="GU0ft3rcJpjGFEKYJ0Fs-5" target="GU0ft3rcJpjGFEKYJ0Fs-5" edge="1">
          <mxGeometry relative="1" as="geometry" />
        </mxCell>
        <mxCell id="GU0ft3rcJpjGFEKYJ0Fs-59" value="" style="group" parent="1" vertex="1" connectable="0">
          <mxGeometry x="469" y="860" width="100" height="40" as="geometry" />
        </mxCell>
        <mxCell id="GU0ft3rcJpjGFEKYJ0Fs-60" value="&lt;span style=&quot;border-bottom: 1px dotted&quot;&gt;AssignmentID&lt;/span&gt;" style="ellipse;whiteSpace=wrap;html=1;align=center;strokeColor=#FFFFFF;fillColor=none;fontColor=#FFFFFF;" parent="GU0ft3rcJpjGFEKYJ0Fs-59" vertex="1">
          <mxGeometry width="100" height="40" as="geometry" />
        </mxCell>
        <mxCell id="GU0ft3rcJpjGFEKYJ0Fs-61" value="" style="endArrow=none;html=1;fontColor=#FFFFFF;strokeColor=#FFFFFF;dashed=1;dashPattern=1 1;" parent="GU0ft3rcJpjGFEKYJ0Fs-59" edge="1">
          <mxGeometry width="50" height="50" relative="1" as="geometry">
            <mxPoint x="20" y="31" as="sourcePoint" />
            <mxPoint x="80" y="31" as="targetPoint" />
          </mxGeometry>
        </mxCell>
        <mxCell id="Ungp7UJ532jxS2_y9dqf-2" style="edgeStyle=none;rounded=0;orthogonalLoop=1;jettySize=auto;html=1;exitX=0.5;exitY=1;exitDx=0;exitDy=0;entryX=0.563;entryY=-0.011;entryDx=0;entryDy=0;dashed=1;strokeColor=#FFFFFF;align=center;verticalAlign=middle;fontFamily=Helvetica;fontSize=11;fontColor=#FFFFFF;labelBackgroundColor=none;endArrow=none;endFill=0;entryPerimeter=0;" parent="1" source="GU0ft3rcJpjGFEKYJ0Fs-87" target="GU0ft3rcJpjGFEKYJ0Fs-89" edge="1">
          <mxGeometry relative="1" as="geometry" />
        </mxCell>
        <mxCell id="eoxjxHQQ1nFGvhZmt7ln-7" style="edgeStyle=none;rounded=0;orthogonalLoop=1;jettySize=auto;html=1;exitX=0.75;exitY=1;exitDx=0;exitDy=0;entryX=0.5;entryY=0;entryDx=0;entryDy=0;dashed=1;strokeColor=#FFFFFF;align=center;verticalAlign=middle;fontFamily=Helvetica;fontSize=11;fontColor=#FFFFFF;labelBackgroundColor=none;endArrow=none;endFill=0;" parent="1" source="GU0ft3rcJpjGFEKYJ0Fs-87" target="eoxjxHQQ1nFGvhZmt7ln-6" edge="1">
          <mxGeometry relative="1" as="geometry" />
        </mxCell>
        <mxCell id="GU0ft3rcJpjGFEKYJ0Fs-87" value="Students" style="whiteSpace=wrap;html=1;align=center;strokeColor=#FFFFFF;fillColor=none;fontColor=#FFFFFF;" parent="1" vertex="1">
          <mxGeometry x="832" y="800" width="100" height="44" as="geometry" />
        </mxCell>
        <mxCell id="GU0ft3rcJpjGFEKYJ0Fs-88" value="&amp;nbsp;StudentID" style="ellipse;whiteSpace=wrap;html=1;align=center;fontStyle=4;strokeColor=#FFFFFF;fillColor=none;fontColor=#FFFFFF;" parent="1" vertex="1">
          <mxGeometry x="666" y="951" width="100" height="40" as="geometry" />
        </mxCell>
        <mxCell id="GU0ft3rcJpjGFEKYJ0Fs-89" value="Name" style="ellipse;whiteSpace=wrap;html=1;align=center;strokeColor=#FFFFFF;fillColor=none;fontColor=#FFFFFF;" parent="1" vertex="1">
          <mxGeometry x="800" y="954" width="120" height="40" as="geometry" />
        </mxCell>
        <mxCell id="GU0ft3rcJpjGFEKYJ0Fs-93" value="&amp;nbsp;Grade" style="ellipse;whiteSpace=wrap;html=1;align=center;strokeColor=#FFFFFF;fillColor=none;fontColor=#FFFFFF;" parent="1" vertex="1">
          <mxGeometry x="5" y="1021" width="117" height="40" as="geometry" />
        </mxCell>
        <mxCell id="GU0ft3rcJpjGFEKYJ0Fs-94" value="ProfessorEmail" style="ellipse;whiteSpace=wrap;html=1;align=center;strokeColor=#FFFFFF;fillColor=none;fontColor=#FFFFFF;" parent="1" vertex="1">
          <mxGeometry x="22" y="526" width="100" height="40" as="geometry" />
        </mxCell>
        <mxCell id="GU0ft3rcJpjGFEKYJ0Fs-133" style="edgeStyle=none;rounded=0;orthogonalLoop=1;jettySize=auto;html=1;exitX=1;exitY=0.5;exitDx=0;exitDy=0;entryX=0;entryY=0.5;entryDx=0;entryDy=0;dashed=1;strokeColor=#FFFFFF;align=center;verticalAlign=middle;fontFamily=Helvetica;fontSize=11;fontColor=default;labelBackgroundColor=default;endArrow=none;endFill=0;" parent="1" source="GU0ft3rcJpjGFEKYJ0Fs-103" target="GU0ft3rcJpjGFEKYJ0Fs-4" edge="1">
          <mxGeometry relative="1" as="geometry">
            <mxPoint x="630" y="555" as="targetPoint" />
            <mxPoint x="585" y="352.5" as="sourcePoint" />
          </mxGeometry>
        </mxCell>
        <mxCell id="-SJ-B6quabVOZGCNZFLF-12" value="M" style="edgeLabel;html=1;align=center;verticalAlign=middle;resizable=0;points=[];fontFamily=Helvetica;fontSize=11;fontColor=#FFFFFF;labelBackgroundColor=none;fillColor=none;gradientColor=none;" parent="GU0ft3rcJpjGFEKYJ0Fs-133" vertex="1" connectable="0">
          <mxGeometry x="0.0185" relative="1" as="geometry">
            <mxPoint x="-9" y="-2" as="offset" />
          </mxGeometry>
        </mxCell>
        <mxCell id="GU0ft3rcJpjGFEKYJ0Fs-103" value="teaches" style="shape=rhombus;perimeter=rhombusPerimeter;whiteSpace=wrap;html=1;align=center;strokeColor=#FFFFFF;fillColor=none;fontColor=#FFFFFF;" parent="1" vertex="1">
          <mxGeometry x="398" y="401" width="120" height="60" as="geometry" />
        </mxCell>
        <mxCell id="GU0ft3rcJpjGFEKYJ0Fs-109" value="accommodates" style="shape=rhombus;perimeter=rhombusPerimeter;whiteSpace=wrap;html=1;align=center;strokeColor=#FFFFFF;fillColor=none;fontColor=#FFFFFF;" parent="1" vertex="1">
          <mxGeometry x="416" y="95" width="120" height="60" as="geometry" />
        </mxCell>
        <mxCell id="GU0ft3rcJpjGFEKYJ0Fs-114" value="accommodates" style="shape=rhombus;perimeter=rhombusPerimeter;whiteSpace=wrap;html=1;align=center;strokeColor=#FFFFFF;fillColor=none;fontColor=#FFFFFF;" parent="1" vertex="1">
          <mxGeometry x="620" y="379" width="120" height="60" as="geometry" />
        </mxCell>
        <mxCell id="GU0ft3rcJpjGFEKYJ0Fs-120" value="help" style="shape=rhombus;perimeter=rhombusPerimeter;whiteSpace=wrap;html=1;align=center;strokeColor=#FFFFFF;fillColor=none;fontColor=#FFFFFF;" parent="1" vertex="1">
          <mxGeometry x="510" y="639" width="120" height="60" as="geometry" />
        </mxCell>
        <mxCell id="I_56BF-7_PQjTVBD-00G-7" value="" style="edgeStyle=none;rounded=0;orthogonalLoop=1;jettySize=auto;html=1;exitX=0.75;exitY=0;exitDx=0;exitDy=0;entryX=0;entryY=0.5;entryDx=0;entryDy=0;dashed=1;strokeColor=#FFFFFF;align=center;verticalAlign=middle;fontFamily=Helvetica;fontSize=11;fontColor=default;labelBackgroundColor=default;endArrow=none;endFill=0;" parent="1" source="GU0ft3rcJpjGFEKYJ0Fs-30" target="GU0ft3rcJpjGFEKYJ0Fs-103" edge="1">
          <mxGeometry relative="1" as="geometry">
            <mxPoint x="281" y="528" as="sourcePoint" />
            <mxPoint x="325" y="490.5" as="targetPoint" />
          </mxGeometry>
        </mxCell>
        <mxCell id="-SJ-B6quabVOZGCNZFLF-11" value="1" style="edgeLabel;html=1;align=center;verticalAlign=middle;resizable=0;points=[];fontFamily=Helvetica;fontSize=11;fontColor=#FFFFFF;labelBackgroundColor=none;fillColor=none;gradientColor=none;" parent="I_56BF-7_PQjTVBD-00G-7" vertex="1" connectable="0">
          <mxGeometry x="-0.2498" y="1" relative="1" as="geometry">
            <mxPoint x="-6" y="-6" as="offset" />
          </mxGeometry>
        </mxCell>
        <mxCell id="I_56BF-7_PQjTVBD-00G-13" style="edgeStyle=none;rounded=0;orthogonalLoop=1;jettySize=auto;html=1;entryX=0;entryY=0.5;entryDx=0;entryDy=0;dashed=1;strokeColor=#FFFFFF;align=center;verticalAlign=middle;fontFamily=Helvetica;fontSize=11;fontColor=default;labelBackgroundColor=default;endArrow=none;endFill=0;" parent="1" source="I_56BF-7_PQjTVBD-00G-8" target="GU0ft3rcJpjGFEKYJ0Fs-5" edge="1">
          <mxGeometry relative="1" as="geometry" />
        </mxCell>
        <mxCell id="dTYZy2Bea9wpLuqC7pRo-4" value="N" style="edgeLabel;html=1;align=center;verticalAlign=middle;resizable=0;points=[];fontFamily=Helvetica;fontSize=11;fontColor=#FFFFFF;labelBackgroundColor=none;fillColor=none;gradientColor=none;" parent="I_56BF-7_PQjTVBD-00G-13" vertex="1" connectable="0">
          <mxGeometry x="-0.1372" y="-2" relative="1" as="geometry">
            <mxPoint x="27" y="-12" as="offset" />
          </mxGeometry>
        </mxCell>
        <mxCell id="I_56BF-7_PQjTVBD-00G-8" value="assign" style="shape=rhombus;perimeter=rhombusPerimeter;whiteSpace=wrap;html=1;align=center;strokeColor=#FFFFFF;fillColor=none;fontColor=#FFFFFF;" parent="1" vertex="1">
          <mxGeometry x="416" y="539" width="120" height="60" as="geometry" />
        </mxCell>
        <mxCell id="I_56BF-7_PQjTVBD-00G-16" style="edgeStyle=none;rounded=0;orthogonalLoop=1;jettySize=auto;html=1;entryX=0.25;entryY=0;entryDx=0;entryDy=0;dashed=1;strokeColor=#FFFFFF;align=center;verticalAlign=middle;fontFamily=Helvetica;fontSize=11;fontColor=default;labelBackgroundColor=default;endArrow=none;endFill=0;exitX=0.5;exitY=1;exitDx=0;exitDy=0;" parent="1" source="I_56BF-7_PQjTVBD-00G-14" target="GU0ft3rcJpjGFEKYJ0Fs-23" edge="1">
          <mxGeometry relative="1" as="geometry" />
        </mxCell>
        <mxCell id="dTYZy2Bea9wpLuqC7pRo-2" value="N" style="edgeLabel;html=1;align=center;verticalAlign=middle;resizable=0;points=[];fontFamily=Helvetica;fontSize=11;fontColor=#FFFFFF;labelBackgroundColor=none;fillColor=none;gradientColor=none;" parent="I_56BF-7_PQjTVBD-00G-16" vertex="1" connectable="0">
          <mxGeometry x="0.0282" y="-2" relative="1" as="geometry">
            <mxPoint x="-9" y="2" as="offset" />
          </mxGeometry>
        </mxCell>
        <mxCell id="I_56BF-7_PQjTVBD-00G-14" value="give" style="shape=rhombus;perimeter=rhombusPerimeter;whiteSpace=wrap;html=1;align=center;strokeColor=#FFFFFF;fillColor=none;fontColor=#FFFFFF;" parent="1" vertex="1">
          <mxGeometry x="305" y="634" width="89" height="60" as="geometry" />
        </mxCell>
        <mxCell id="I_56BF-7_PQjTVBD-00G-25" value="" style="group" parent="1" vertex="1" connectable="0">
          <mxGeometry x="254" y="1064" width="100" height="40" as="geometry" />
        </mxCell>
        <mxCell id="I_56BF-7_PQjTVBD-00G-26" value="&lt;span style=&quot;border-bottom: 1px dotted&quot;&gt;StudentID&lt;/span&gt;" style="ellipse;whiteSpace=wrap;html=1;align=center;strokeColor=#FFFFFF;fillColor=none;fontColor=#FFFFFF;" parent="I_56BF-7_PQjTVBD-00G-25" vertex="1">
          <mxGeometry width="100" height="40" as="geometry" />
        </mxCell>
        <mxCell id="I_56BF-7_PQjTVBD-00G-27" value="" style="endArrow=none;html=1;fontColor=#FFFFFF;strokeColor=#FFFFFF;dashed=1;dashPattern=1 1;" parent="I_56BF-7_PQjTVBD-00G-25" edge="1">
          <mxGeometry width="50" height="50" relative="1" as="geometry">
            <mxPoint x="20" y="31" as="sourcePoint" />
            <mxPoint x="80" y="31" as="targetPoint" />
          </mxGeometry>
        </mxCell>
        <mxCell id="I_56BF-7_PQjTVBD-00G-50" style="edgeStyle=none;rounded=0;orthogonalLoop=1;jettySize=auto;html=1;exitX=0.533;exitY=1;exitDx=0;exitDy=0;entryX=0;entryY=0.5;entryDx=0;entryDy=0;dashed=1;strokeColor=#FFFFFF;align=center;verticalAlign=middle;fontFamily=Helvetica;fontSize=11;fontColor=default;labelBackgroundColor=default;endArrow=none;endFill=0;exitPerimeter=0;" parent="1" source="I_56BF-7_PQjTVBD-00G-48" target="GU0ft3rcJpjGFEKYJ0Fs-87" edge="1">
          <mxGeometry relative="1" as="geometry" />
        </mxCell>
        <mxCell id="-SJ-B6quabVOZGCNZFLF-10" value="1" style="edgeLabel;html=1;align=center;verticalAlign=middle;resizable=0;points=[];fontFamily=Helvetica;fontSize=11;fontColor=#FFFFFF;labelBackgroundColor=none;fillColor=none;gradientColor=none;" parent="I_56BF-7_PQjTVBD-00G-50" vertex="1" connectable="0">
          <mxGeometry x="-0.2088" y="-2" relative="1" as="geometry">
            <mxPoint x="48" y="-8" as="offset" />
          </mxGeometry>
        </mxCell>
        <mxCell id="I_56BF-7_PQjTVBD-00G-48" value="complete " style="shape=rhombus;perimeter=rhombusPerimeter;whiteSpace=wrap;html=1;align=center;strokeColor=#FFFFFF;fillColor=none;fontColor=#FFFFFF;" parent="1" vertex="1">
          <mxGeometry x="698" y="720" width="120" height="60" as="geometry" />
        </mxCell>
        <mxCell id="Ungp7UJ532jxS2_y9dqf-3" style="edgeStyle=none;rounded=0;orthogonalLoop=1;jettySize=auto;html=1;exitX=0.25;exitY=1;exitDx=0;exitDy=0;entryX=0.886;entryY=0.254;entryDx=0;entryDy=0;entryPerimeter=0;dashed=1;strokeColor=#FFFFFF;align=center;verticalAlign=middle;fontFamily=Helvetica;fontSize=11;fontColor=#FFFFFF;labelBackgroundColor=none;endArrow=none;endFill=0;" parent="1" source="GU0ft3rcJpjGFEKYJ0Fs-87" target="GU0ft3rcJpjGFEKYJ0Fs-88" edge="1">
          <mxGeometry relative="1" as="geometry" />
        </mxCell>
        <mxCell id="Ungp7UJ532jxS2_y9dqf-4" value="DueDate" style="ellipse;whiteSpace=wrap;html=1;align=center;strokeColor=#FFFFFF;fillColor=none;fontColor=#FFFFFF;" parent="1" vertex="1">
          <mxGeometry x="922" y="680" width="100" height="40" as="geometry" />
        </mxCell>
        <mxCell id="eoxjxHQQ1nFGvhZmt7ln-2" value="Name" style="ellipse;whiteSpace=wrap;html=1;align=center;strokeColor=#FFFFFF;fillColor=none;fontColor=#FFFFFF;" parent="1" vertex="1">
          <mxGeometry x="19" y="594" width="100" height="40" as="geometry" />
        </mxCell>
        <mxCell id="eoxjxHQQ1nFGvhZmt7ln-6" value="Gender" style="ellipse;whiteSpace=wrap;html=1;align=center;strokeColor=#FFFFFF;fillColor=none;fontColor=#FFFFFF;" parent="1" vertex="1">
          <mxGeometry x="928" y="960" width="120" height="40" as="geometry" />
        </mxCell>
        <mxCell id="o-OZb3glfxWIwdZx7r35-7" style="edgeStyle=none;rounded=0;orthogonalLoop=1;jettySize=auto;html=1;exitX=1;exitY=0.5;exitDx=0;exitDy=0;entryX=0;entryY=0.5;entryDx=0;entryDy=0;dashed=1;strokeColor=#FFFFFF;align=center;verticalAlign=middle;fontFamily=Helvetica;fontSize=11;fontColor=#FFFFFF;labelBackgroundColor=none;endArrow=none;endFill=0;" parent="1" source="o-OZb3glfxWIwdZx7r35-1" target="o-OZb3glfxWIwdZx7r35-2" edge="1">
          <mxGeometry relative="1" as="geometry" />
        </mxCell>
        <mxCell id="o-OZb3glfxWIwdZx7r35-9" style="edgeStyle=none;rounded=0;orthogonalLoop=1;jettySize=auto;html=1;exitX=0.385;exitY=1.078;exitDx=0;exitDy=0;entryX=0.5;entryY=0;entryDx=0;entryDy=0;dashed=1;strokeColor=#FFFFFF;align=center;verticalAlign=middle;fontFamily=Helvetica;fontSize=11;fontColor=#FFFFFF;labelBackgroundColor=none;endArrow=none;endFill=0;exitPerimeter=0;" parent="1" source="o-OZb3glfxWIwdZx7r35-1" target="o-OZb3glfxWIwdZx7r35-4" edge="1">
          <mxGeometry relative="1" as="geometry" />
        </mxCell>
        <mxCell id="o-OZb3glfxWIwdZx7r35-10" style="edgeStyle=none;rounded=0;orthogonalLoop=1;jettySize=auto;html=1;exitX=0.12;exitY=1.115;exitDx=0;exitDy=0;entryX=0.5;entryY=0;entryDx=0;entryDy=0;dashed=1;strokeColor=#FFFFFF;align=center;verticalAlign=middle;fontFamily=Helvetica;fontSize=11;fontColor=#FFFFFF;labelBackgroundColor=none;endArrow=none;endFill=0;exitPerimeter=0;" parent="1" source="o-OZb3glfxWIwdZx7r35-1" target="GU0ft3rcJpjGFEKYJ0Fs-93" edge="1">
          <mxGeometry relative="1" as="geometry" />
        </mxCell>
        <mxCell id="o-OZb3glfxWIwdZx7r35-11" style="edgeStyle=none;rounded=0;orthogonalLoop=1;jettySize=auto;html=1;exitX=1;exitY=0.75;exitDx=0;exitDy=0;dashed=1;strokeColor=#FFFFFF;align=center;verticalAlign=middle;fontFamily=Helvetica;fontSize=11;fontColor=#FFFFFF;labelBackgroundColor=none;endArrow=none;endFill=0;entryX=0.5;entryY=0;entryDx=0;entryDy=0;" parent="1" source="o-OZb3glfxWIwdZx7r35-1" target="I_56BF-7_PQjTVBD-00G-26" edge="1">
          <mxGeometry relative="1" as="geometry">
            <mxPoint x="326.60003662109375" y="1067" as="targetPoint" />
          </mxGeometry>
        </mxCell>
        <mxCell id="o-OZb3glfxWIwdZx7r35-1" value="Grade" style="whiteSpace=wrap;html=1;align=center;strokeColor=#FFFFFF;fillColor=none;fontColor=#FFFFFF;" parent="1" vertex="1">
          <mxGeometry x="86" y="893" width="100" height="40" as="geometry" />
        </mxCell>
        <mxCell id="o-OZb3glfxWIwdZx7r35-2" value="GradeID" style="ellipse;whiteSpace=wrap;html=1;align=center;fontStyle=4;strokeColor=#FFFFFF;fillColor=none;fontColor=#FFFFFF;" parent="1" vertex="1">
          <mxGeometry x="336" y="991" width="100" height="40" as="geometry" />
        </mxCell>
        <mxCell id="o-OZb3glfxWIwdZx7r35-3" value="" style="group" parent="1" vertex="1" connectable="0">
          <mxGeometry x="131.5" y="1043" width="100" height="40" as="geometry" />
        </mxCell>
        <mxCell id="o-OZb3glfxWIwdZx7r35-4" value="&lt;span style=&quot;border-bottom: 1px dotted&quot;&gt;AssignmentID&lt;/span&gt;" style="ellipse;whiteSpace=wrap;html=1;align=center;strokeColor=#FFFFFF;fillColor=none;fontColor=#FFFFFF;" parent="o-OZb3glfxWIwdZx7r35-3" vertex="1">
          <mxGeometry width="100" height="40" as="geometry" />
        </mxCell>
        <mxCell id="o-OZb3glfxWIwdZx7r35-5" value="" style="endArrow=none;html=1;fontColor=#FFFFFF;strokeColor=#FFFFFF;dashed=1;dashPattern=1 1;" parent="o-OZb3glfxWIwdZx7r35-3" edge="1">
          <mxGeometry width="50" height="50" relative="1" as="geometry">
            <mxPoint x="20" y="31" as="sourcePoint" />
            <mxPoint x="80" y="31" as="targetPoint" />
          </mxGeometry>
        </mxCell>
        <mxCell id="o-OZb3glfxWIwdZx7r35-12" value="" style="group" parent="1" vertex="1" connectable="0">
          <mxGeometry x="917" y="596" width="100" height="40" as="geometry" />
        </mxCell>
        <mxCell id="o-OZb3glfxWIwdZx7r35-13" value="&lt;span style=&quot;border-bottom: 1px dotted&quot;&gt;SectionID&lt;/span&gt;" style="ellipse;whiteSpace=wrap;html=1;align=center;strokeColor=#FFFFFF;fillColor=none;fontColor=#FFFFFF;" parent="o-OZb3glfxWIwdZx7r35-12" vertex="1">
          <mxGeometry width="100" height="40" as="geometry" />
        </mxCell>
        <mxCell id="o-OZb3glfxWIwdZx7r35-14" value="" style="endArrow=none;html=1;fontColor=#FFFFFF;strokeColor=#FFFFFF;dashed=1;dashPattern=1 1;" parent="o-OZb3glfxWIwdZx7r35-12" edge="1">
          <mxGeometry width="50" height="50" relative="1" as="geometry">
            <mxPoint x="20" y="31" as="sourcePoint" />
            <mxPoint x="80" y="31" as="targetPoint" />
          </mxGeometry>
        </mxCell>
        <mxCell id="o-OZb3glfxWIwdZx7r35-18" style="edgeStyle=none;rounded=0;orthogonalLoop=1;jettySize=auto;html=1;exitX=0.5;exitY=1;exitDx=0;exitDy=0;entryX=0.5;entryY=0;entryDx=0;entryDy=0;dashed=1;strokeColor=#FFFFFF;align=center;verticalAlign=middle;fontFamily=Helvetica;fontSize=11;fontColor=#FFFFFF;labelBackgroundColor=none;endArrow=none;endFill=0;" parent="1" source="o-OZb3glfxWIwdZx7r35-16" target="o-OZb3glfxWIwdZx7r35-1" edge="1">
          <mxGeometry relative="1" as="geometry" />
        </mxCell>
        <mxCell id="o-OZb3glfxWIwdZx7r35-20" value="N" style="edgeLabel;html=1;align=center;verticalAlign=middle;resizable=0;points=[];fontFamily=Helvetica;fontSize=11;fontColor=#FFFFFF;labelBackgroundColor=none;" parent="o-OZb3glfxWIwdZx7r35-18" vertex="1" connectable="0">
          <mxGeometry x="-0.2714" y="2" relative="1" as="geometry">
            <mxPoint x="-2" y="41" as="offset" />
          </mxGeometry>
        </mxCell>
        <mxCell id="o-OZb3glfxWIwdZx7r35-16" value="mark" style="shape=rhombus;perimeter=rhombusPerimeter;whiteSpace=wrap;html=1;align=center;strokeColor=#FFFFFF;fillColor=none;fontColor=#FFFFFF;" parent="1" vertex="1">
          <mxGeometry x="137" y="716" width="89" height="60" as="geometry" />
        </mxCell>
        <mxCell id="o-OZb3glfxWIwdZx7r35-17" style="edgeStyle=none;rounded=0;orthogonalLoop=1;jettySize=auto;html=1;exitX=0.5;exitY=1;exitDx=0;exitDy=0;entryX=0.425;entryY=0.013;entryDx=0;entryDy=0;entryPerimeter=0;dashed=1;strokeColor=#FFFFFF;align=center;verticalAlign=middle;fontFamily=Helvetica;fontSize=11;fontColor=#FFFFFF;labelBackgroundColor=none;endArrow=none;endFill=0;" parent="1" source="GU0ft3rcJpjGFEKYJ0Fs-30" target="o-OZb3glfxWIwdZx7r35-16" edge="1">
          <mxGeometry relative="1" as="geometry" />
        </mxCell>
        <mxCell id="o-OZb3glfxWIwdZx7r35-19" value="M" style="edgeLabel;html=1;align=center;verticalAlign=middle;resizable=0;points=[];fontFamily=Helvetica;fontSize=11;fontColor=#FFFFFF;labelBackgroundColor=none;" parent="o-OZb3glfxWIwdZx7r35-17" vertex="1" connectable="0">
          <mxGeometry x="0.1593" y="3" relative="1" as="geometry">
            <mxPoint x="27" y="-28" as="offset" />
          </mxGeometry>
        </mxCell>
      </root>
    </mxGraphModel>
  </diagram>
  <diagram name="Entities &amp; Attributes" id="x3uQBSlmDtTH4PlA1bDb">
    <mxGraphModel dx="1050" dy="621" grid="1" gridSize="10" guides="1" tooltips="1" connect="1" arrows="1" fold="1" page="1" pageScale="1" pageWidth="850" pageHeight="1100" background="#000000" math="0" shadow="0" extFonts="Permanent Marker^https://fonts.googleapis.com/css?family=Permanent+Marker">
      <root>
        <mxCell id="8Mt_m_WyQLmfWNq4UV26-0" />
        <mxCell id="8Mt_m_WyQLmfWNq4UV26-1" parent="8Mt_m_WyQLmfWNq4UV26-0" />
        <mxCell id="8Mt_m_WyQLmfWNq4UV26-2" value="Dog" style="whiteSpace=wrap;html=1;align=center;strokeColor=#FFFFFF;fillColor=none;fontColor=#FFFFFF;" parent="8Mt_m_WyQLmfWNq4UV26-1" vertex="1">
          <mxGeometry x="180" y="190" width="100" height="40" as="geometry" />
        </mxCell>
        <mxCell id="8Mt_m_WyQLmfWNq4UV26-6" value="Name" style="ellipse;whiteSpace=wrap;html=1;align=center;strokeColor=#FFFFFF;fillColor=none;fontColor=#FFFFFF;" parent="8Mt_m_WyQLmfWNq4UV26-1" vertex="1">
          <mxGeometry x="40" y="100" width="100" height="40" as="geometry" />
        </mxCell>
        <mxCell id="8Mt_m_WyQLmfWNq4UV26-7" value="Age" style="ellipse;whiteSpace=wrap;html=1;align=center;strokeColor=#FFFFFF;fillColor=none;fontColor=#FFFFFF;" parent="8Mt_m_WyQLmfWNq4UV26-1" vertex="1">
          <mxGeometry x="40" y="160" width="100" height="40" as="geometry" />
        </mxCell>
        <mxCell id="8Mt_m_WyQLmfWNq4UV26-8" value="Breed" style="ellipse;whiteSpace=wrap;html=1;align=center;strokeColor=#FFFFFF;fillColor=none;fontColor=#FFFFFF;" parent="8Mt_m_WyQLmfWNq4UV26-1" vertex="1">
          <mxGeometry x="40" y="220" width="100" height="40" as="geometry" />
        </mxCell>
        <mxCell id="8Mt_m_WyQLmfWNq4UV26-9" value="Sex" style="ellipse;whiteSpace=wrap;html=1;align=center;strokeColor=#FFFFFF;fillColor=none;fontColor=#FFFFFF;" parent="8Mt_m_WyQLmfWNq4UV26-1" vertex="1">
          <mxGeometry x="40" y="280" width="100" height="40" as="geometry" />
        </mxCell>
        <mxCell id="8Mt_m_WyQLmfWNq4UV26-10" value="Fur color" style="ellipse;whiteSpace=wrap;html=1;align=center;strokeColor=#FFFFFF;fillColor=none;fontColor=#FFFFFF;" parent="8Mt_m_WyQLmfWNq4UV26-1" vertex="1">
          <mxGeometry x="40" y="340" width="100" height="40" as="geometry" />
        </mxCell>
        <mxCell id="8Mt_m_WyQLmfWNq4UV26-11" value="" style="endArrow=none;html=1;dashed=1;dashPattern=1 1;strokeColor=#FFFFFF;fontColor=#FFFFFF;" parent="8Mt_m_WyQLmfWNq4UV26-1" source="8Mt_m_WyQLmfWNq4UV26-2" target="8Mt_m_WyQLmfWNq4UV26-6" edge="1">
          <mxGeometry width="50" height="50" relative="1" as="geometry">
            <mxPoint x="210" y="170" as="sourcePoint" />
            <mxPoint x="260" y="120" as="targetPoint" />
          </mxGeometry>
        </mxCell>
        <mxCell id="8Mt_m_WyQLmfWNq4UV26-12" value="" style="endArrow=none;html=1;dashed=1;dashPattern=1 1;strokeColor=#FFFFFF;fontColor=#FFFFFF;" parent="8Mt_m_WyQLmfWNq4UV26-1" source="8Mt_m_WyQLmfWNq4UV26-2" target="8Mt_m_WyQLmfWNq4UV26-7" edge="1">
          <mxGeometry width="50" height="50" relative="1" as="geometry">
            <mxPoint x="233.33333333333337" y="230" as="sourcePoint" />
            <mxPoint x="123.52941176470449" y="147.64705882352825" as="targetPoint" />
          </mxGeometry>
        </mxCell>
        <mxCell id="8Mt_m_WyQLmfWNq4UV26-13" value="" style="endArrow=none;html=1;dashed=1;dashPattern=1 1;strokeColor=#FFFFFF;fontColor=#FFFFFF;" parent="8Mt_m_WyQLmfWNq4UV26-1" source="8Mt_m_WyQLmfWNq4UV26-2" target="8Mt_m_WyQLmfWNq4UV26-8" edge="1">
          <mxGeometry width="50" height="50" relative="1" as="geometry">
            <mxPoint x="210" y="231.25" as="sourcePoint" />
            <mxPoint x="136.47686020700291" y="203.67882257762597" as="targetPoint" />
          </mxGeometry>
        </mxCell>
        <mxCell id="8Mt_m_WyQLmfWNq4UV26-14" value="" style="endArrow=none;html=1;dashed=1;dashPattern=1 1;strokeColor=#FFFFFF;fontColor=#FFFFFF;" parent="8Mt_m_WyQLmfWNq4UV26-1" source="8Mt_m_WyQLmfWNq4UV26-2" target="8Mt_m_WyQLmfWNq4UV26-9" edge="1">
          <mxGeometry width="50" height="50" relative="1" as="geometry">
            <mxPoint x="220" y="241.25" as="sourcePoint" />
            <mxPoint x="149.27300578721747" y="246.60186166984704" as="targetPoint" />
          </mxGeometry>
        </mxCell>
        <mxCell id="8Mt_m_WyQLmfWNq4UV26-15" value="" style="endArrow=none;html=1;dashed=1;dashPattern=1 1;strokeColor=#FFFFFF;fontColor=#FFFFFF;" parent="8Mt_m_WyQLmfWNq4UV26-1" source="8Mt_m_WyQLmfWNq4UV26-2" target="8Mt_m_WyQLmfWNq4UV26-10" edge="1">
          <mxGeometry width="50" height="50" relative="1" as="geometry">
            <mxPoint x="230" y="251.25" as="sourcePoint" />
            <mxPoint x="159.27300578721747" y="256.60186166984704" as="targetPoint" />
          </mxGeometry>
        </mxCell>
        <mxCell id="8Mt_m_WyQLmfWNq4UV26-16" value="Person" style="whiteSpace=wrap;html=1;align=center;strokeColor=#FFFFFF;fillColor=none;fontColor=#FFFFFF;" parent="8Mt_m_WyQLmfWNq4UV26-1" vertex="1">
          <mxGeometry x="480" y="190" width="100" height="40" as="geometry" />
        </mxCell>
        <mxCell id="8Mt_m_WyQLmfWNq4UV26-17" value="Name" style="ellipse;whiteSpace=wrap;html=1;align=center;strokeColor=#FFFFFF;fillColor=none;fontColor=#FFFFFF;" parent="8Mt_m_WyQLmfWNq4UV26-1" vertex="1">
          <mxGeometry x="620" y="110" width="100" height="40" as="geometry" />
        </mxCell>
        <mxCell id="8Mt_m_WyQLmfWNq4UV26-18" value="Age" style="ellipse;whiteSpace=wrap;html=1;align=center;strokeColor=#FFFFFF;fillColor=none;fontColor=#FFFFFF;" parent="8Mt_m_WyQLmfWNq4UV26-1" vertex="1">
          <mxGeometry x="620" y="170" width="100" height="40" as="geometry" />
        </mxCell>
        <mxCell id="8Mt_m_WyQLmfWNq4UV26-19" value="Sex" style="ellipse;whiteSpace=wrap;html=1;align=center;strokeColor=#FFFFFF;fillColor=none;fontColor=#FFFFFF;" parent="8Mt_m_WyQLmfWNq4UV26-1" vertex="1">
          <mxGeometry x="620" y="230" width="100" height="40" as="geometry" />
        </mxCell>
        <mxCell id="8Mt_m_WyQLmfWNq4UV26-20" value="Height" style="ellipse;whiteSpace=wrap;html=1;align=center;strokeColor=#FFFFFF;fillColor=none;fontColor=#FFFFFF;" parent="8Mt_m_WyQLmfWNq4UV26-1" vertex="1">
          <mxGeometry x="620" y="290" width="100" height="40" as="geometry" />
        </mxCell>
        <mxCell id="8Mt_m_WyQLmfWNq4UV26-21" value="Weight" style="ellipse;whiteSpace=wrap;html=1;align=center;strokeColor=#FFFFFF;fillColor=none;fontColor=#FFFFFF;" parent="8Mt_m_WyQLmfWNq4UV26-1" vertex="1">
          <mxGeometry x="620" y="350" width="100" height="40" as="geometry" />
        </mxCell>
        <mxCell id="8Mt_m_WyQLmfWNq4UV26-22" value="" style="endArrow=none;html=1;dashed=1;dashPattern=1 1;strokeColor=#FFFFFF;fontColor=#FFFFFF;" parent="8Mt_m_WyQLmfWNq4UV26-1" source="8Mt_m_WyQLmfWNq4UV26-16" target="8Mt_m_WyQLmfWNq4UV26-17" edge="1">
          <mxGeometry width="50" height="50" relative="1" as="geometry">
            <mxPoint x="520" y="180" as="sourcePoint" />
            <mxPoint x="570" y="130" as="targetPoint" />
          </mxGeometry>
        </mxCell>
        <mxCell id="8Mt_m_WyQLmfWNq4UV26-23" value="" style="endArrow=none;html=1;dashed=1;dashPattern=1 1;strokeColor=#FFFFFF;fontColor=#FFFFFF;" parent="8Mt_m_WyQLmfWNq4UV26-1" source="8Mt_m_WyQLmfWNq4UV26-16" target="8Mt_m_WyQLmfWNq4UV26-18" edge="1">
          <mxGeometry width="50" height="50" relative="1" as="geometry">
            <mxPoint x="543.3333333333334" y="240" as="sourcePoint" />
            <mxPoint x="433.5294117647045" y="157.64705882352825" as="targetPoint" />
          </mxGeometry>
        </mxCell>
        <mxCell id="8Mt_m_WyQLmfWNq4UV26-24" value="" style="endArrow=none;html=1;dashed=1;dashPattern=1 1;strokeColor=#FFFFFF;fontColor=#FFFFFF;" parent="8Mt_m_WyQLmfWNq4UV26-1" source="8Mt_m_WyQLmfWNq4UV26-16" target="8Mt_m_WyQLmfWNq4UV26-19" edge="1">
          <mxGeometry width="50" height="50" relative="1" as="geometry">
            <mxPoint x="520" y="241.25" as="sourcePoint" />
            <mxPoint x="446.4768602070029" y="213.67882257762597" as="targetPoint" />
          </mxGeometry>
        </mxCell>
        <mxCell id="8Mt_m_WyQLmfWNq4UV26-25" value="" style="endArrow=none;html=1;dashed=1;dashPattern=1 1;strokeColor=#FFFFFF;fontColor=#FFFFFF;" parent="8Mt_m_WyQLmfWNq4UV26-1" source="8Mt_m_WyQLmfWNq4UV26-16" target="8Mt_m_WyQLmfWNq4UV26-20" edge="1">
          <mxGeometry width="50" height="50" relative="1" as="geometry">
            <mxPoint x="530" y="251.25" as="sourcePoint" />
            <mxPoint x="459.27300578721747" y="256.60186166984704" as="targetPoint" />
          </mxGeometry>
        </mxCell>
        <mxCell id="8Mt_m_WyQLmfWNq4UV26-26" value="" style="endArrow=none;html=1;dashed=1;dashPattern=1 1;strokeColor=#FFFFFF;fontColor=#FFFFFF;" parent="8Mt_m_WyQLmfWNq4UV26-1" source="8Mt_m_WyQLmfWNq4UV26-16" target="8Mt_m_WyQLmfWNq4UV26-21" edge="1">
          <mxGeometry width="50" height="50" relative="1" as="geometry">
            <mxPoint x="540" y="261.25" as="sourcePoint" />
            <mxPoint x="469.27300578721747" y="266.60186166984704" as="targetPoint" />
          </mxGeometry>
        </mxCell>
        <mxCell id="8Mt_m_WyQLmfWNq4UV26-27" value="Chip ID" style="ellipse;whiteSpace=wrap;html=1;align=center;fontStyle=4;strokeColor=#FFFFFF;fillColor=none;fontColor=#FFFFFF;" parent="8Mt_m_WyQLmfWNq4UV26-1" vertex="1">
          <mxGeometry x="40" y="40" width="100" height="40" as="geometry" />
        </mxCell>
        <mxCell id="8Mt_m_WyQLmfWNq4UV26-28" value="" style="endArrow=none;html=1;dashed=1;dashPattern=1 1;strokeColor=#FFFFFF;fontColor=#FFFFFF;" parent="8Mt_m_WyQLmfWNq4UV26-1" source="8Mt_m_WyQLmfWNq4UV26-2" target="8Mt_m_WyQLmfWNq4UV26-27" edge="1">
          <mxGeometry width="50" height="50" relative="1" as="geometry">
            <mxPoint x="216.66666666666674" y="230" as="sourcePoint" />
            <mxPoint x="121.14427326655482" y="148.12366279990408" as="targetPoint" />
          </mxGeometry>
        </mxCell>
        <mxCell id="8Mt_m_WyQLmfWNq4UV26-29" value="" style="endArrow=none;html=1;dashed=1;dashPattern=1 1;strokeColor=#FFFFFF;fontColor=#FFFFFF;" parent="8Mt_m_WyQLmfWNq4UV26-1" source="8Mt_m_WyQLmfWNq4UV26-16" target="8Mt_m_WyQLmfWNq4UV26-30" edge="1">
          <mxGeometry width="50" height="50" relative="1" as="geometry">
            <mxPoint x="563.3333333333333" y="240" as="sourcePoint" />
            <mxPoint x="651" y="80" as="targetPoint" />
          </mxGeometry>
        </mxCell>
        <mxCell id="8Mt_m_WyQLmfWNq4UV26-30" value="Social Security Number" style="ellipse;whiteSpace=wrap;html=1;align=center;fontStyle=4;strokeColor=#FFFFFF;fillColor=none;fontColor=#FFFFFF;" parent="8Mt_m_WyQLmfWNq4UV26-1" vertex="1">
          <mxGeometry x="620" y="50" width="100" height="40" as="geometry" />
        </mxCell>
      </root>
    </mxGraphModel>
  </diagram>
  <diagram name="Relationships" id="x3Dpfew6YXMBg5Lt1oDi">
    <mxGraphModel dx="1050" dy="621" grid="1" gridSize="10" guides="1" tooltips="1" connect="1" arrows="1" fold="1" page="1" pageScale="1" pageWidth="850" pageHeight="1100" background="#000000" math="0" shadow="0" extFonts="Permanent Marker^https://fonts.googleapis.com/css?family=Permanent+Marker">
      <root>
        <mxCell id="bvYGP_05jQYxHPNjV4Q_-0" />
        <mxCell id="bvYGP_05jQYxHPNjV4Q_-1" parent="bvYGP_05jQYxHPNjV4Q_-0" />
        <mxCell id="bvYGP_05jQYxHPNjV4Q_-2" value="Dog" style="whiteSpace=wrap;html=1;align=center;strokeColor=#FFFFFF;fillColor=none;fontColor=#FFFFFF;" parent="bvYGP_05jQYxHPNjV4Q_-1" vertex="1">
          <mxGeometry x="180" y="190" width="100" height="40" as="geometry" />
        </mxCell>
        <mxCell id="bvYGP_05jQYxHPNjV4Q_-4" value="Name" style="ellipse;whiteSpace=wrap;html=1;align=center;strokeColor=#FFFFFF;fillColor=none;fontColor=#FFFFFF;" parent="bvYGP_05jQYxHPNjV4Q_-1" vertex="1">
          <mxGeometry x="40" y="100" width="100" height="40" as="geometry" />
        </mxCell>
        <mxCell id="bvYGP_05jQYxHPNjV4Q_-5" value="Age" style="ellipse;whiteSpace=wrap;html=1;align=center;strokeColor=#FFFFFF;fillColor=none;fontColor=#FFFFFF;" parent="bvYGP_05jQYxHPNjV4Q_-1" vertex="1">
          <mxGeometry x="40" y="160" width="100" height="40" as="geometry" />
        </mxCell>
        <mxCell id="bvYGP_05jQYxHPNjV4Q_-6" value="Breed" style="ellipse;whiteSpace=wrap;html=1;align=center;strokeColor=#FFFFFF;fillColor=none;fontColor=#FFFFFF;" parent="bvYGP_05jQYxHPNjV4Q_-1" vertex="1">
          <mxGeometry x="40" y="220" width="100" height="40" as="geometry" />
        </mxCell>
        <mxCell id="bvYGP_05jQYxHPNjV4Q_-7" value="Sex" style="ellipse;whiteSpace=wrap;html=1;align=center;strokeColor=#FFFFFF;fillColor=none;fontColor=#FFFFFF;" parent="bvYGP_05jQYxHPNjV4Q_-1" vertex="1">
          <mxGeometry x="40" y="280" width="100" height="40" as="geometry" />
        </mxCell>
        <mxCell id="bvYGP_05jQYxHPNjV4Q_-8" value="Fur color" style="ellipse;whiteSpace=wrap;html=1;align=center;strokeColor=#FFFFFF;fillColor=none;fontColor=#FFFFFF;" parent="bvYGP_05jQYxHPNjV4Q_-1" vertex="1">
          <mxGeometry x="40" y="340" width="100" height="40" as="geometry" />
        </mxCell>
        <mxCell id="bvYGP_05jQYxHPNjV4Q_-9" value="" style="endArrow=none;html=1;dashed=1;dashPattern=1 1;strokeColor=#FFFFFF;fontColor=#FFFFFF;" parent="bvYGP_05jQYxHPNjV4Q_-1" source="bvYGP_05jQYxHPNjV4Q_-2" target="bvYGP_05jQYxHPNjV4Q_-4" edge="1">
          <mxGeometry width="50" height="50" relative="1" as="geometry">
            <mxPoint x="210" y="170" as="sourcePoint" />
            <mxPoint x="260" y="120" as="targetPoint" />
          </mxGeometry>
        </mxCell>
        <mxCell id="bvYGP_05jQYxHPNjV4Q_-10" value="" style="endArrow=none;html=1;dashed=1;dashPattern=1 1;strokeColor=#FFFFFF;fontColor=#FFFFFF;" parent="bvYGP_05jQYxHPNjV4Q_-1" source="bvYGP_05jQYxHPNjV4Q_-2" target="bvYGP_05jQYxHPNjV4Q_-5" edge="1">
          <mxGeometry width="50" height="50" relative="1" as="geometry">
            <mxPoint x="233.33333333333337" y="230" as="sourcePoint" />
            <mxPoint x="123.52941176470449" y="147.64705882352825" as="targetPoint" />
          </mxGeometry>
        </mxCell>
        <mxCell id="bvYGP_05jQYxHPNjV4Q_-11" value="" style="endArrow=none;html=1;dashed=1;dashPattern=1 1;strokeColor=#FFFFFF;fontColor=#FFFFFF;" parent="bvYGP_05jQYxHPNjV4Q_-1" source="bvYGP_05jQYxHPNjV4Q_-2" target="bvYGP_05jQYxHPNjV4Q_-6" edge="1">
          <mxGeometry width="50" height="50" relative="1" as="geometry">
            <mxPoint x="210" y="231.25" as="sourcePoint" />
            <mxPoint x="136.47686020700291" y="203.67882257762597" as="targetPoint" />
          </mxGeometry>
        </mxCell>
        <mxCell id="bvYGP_05jQYxHPNjV4Q_-12" value="" style="endArrow=none;html=1;dashed=1;dashPattern=1 1;strokeColor=#FFFFFF;fontColor=#FFFFFF;" parent="bvYGP_05jQYxHPNjV4Q_-1" source="bvYGP_05jQYxHPNjV4Q_-2" target="bvYGP_05jQYxHPNjV4Q_-7" edge="1">
          <mxGeometry width="50" height="50" relative="1" as="geometry">
            <mxPoint x="220" y="241.25" as="sourcePoint" />
            <mxPoint x="149.27300578721747" y="246.60186166984704" as="targetPoint" />
          </mxGeometry>
        </mxCell>
        <mxCell id="bvYGP_05jQYxHPNjV4Q_-13" value="" style="endArrow=none;html=1;dashed=1;dashPattern=1 1;strokeColor=#FFFFFF;fontColor=#FFFFFF;" parent="bvYGP_05jQYxHPNjV4Q_-1" source="bvYGP_05jQYxHPNjV4Q_-2" target="bvYGP_05jQYxHPNjV4Q_-8" edge="1">
          <mxGeometry width="50" height="50" relative="1" as="geometry">
            <mxPoint x="230" y="251.25" as="sourcePoint" />
            <mxPoint x="159.27300578721747" y="256.60186166984704" as="targetPoint" />
          </mxGeometry>
        </mxCell>
        <mxCell id="bvYGP_05jQYxHPNjV4Q_-14" value="Person" style="whiteSpace=wrap;html=1;align=center;strokeColor=#FFFFFF;fillColor=none;fontColor=#FFFFFF;" parent="bvYGP_05jQYxHPNjV4Q_-1" vertex="1">
          <mxGeometry x="480" y="190" width="100" height="40" as="geometry" />
        </mxCell>
        <mxCell id="bvYGP_05jQYxHPNjV4Q_-15" value="Name" style="ellipse;whiteSpace=wrap;html=1;align=center;strokeColor=#FFFFFF;fillColor=none;fontColor=#FFFFFF;" parent="bvYGP_05jQYxHPNjV4Q_-1" vertex="1">
          <mxGeometry x="620" y="110" width="100" height="40" as="geometry" />
        </mxCell>
        <mxCell id="bvYGP_05jQYxHPNjV4Q_-16" value="Age" style="ellipse;whiteSpace=wrap;html=1;align=center;strokeColor=#FFFFFF;fillColor=none;fontColor=#FFFFFF;" parent="bvYGP_05jQYxHPNjV4Q_-1" vertex="1">
          <mxGeometry x="620" y="170" width="100" height="40" as="geometry" />
        </mxCell>
        <mxCell id="bvYGP_05jQYxHPNjV4Q_-17" value="Sex" style="ellipse;whiteSpace=wrap;html=1;align=center;strokeColor=#FFFFFF;fillColor=none;fontColor=#FFFFFF;" parent="bvYGP_05jQYxHPNjV4Q_-1" vertex="1">
          <mxGeometry x="620" y="230" width="100" height="40" as="geometry" />
        </mxCell>
        <mxCell id="bvYGP_05jQYxHPNjV4Q_-18" value="Height" style="ellipse;whiteSpace=wrap;html=1;align=center;strokeColor=#FFFFFF;fillColor=none;fontColor=#FFFFFF;" parent="bvYGP_05jQYxHPNjV4Q_-1" vertex="1">
          <mxGeometry x="620" y="290" width="100" height="40" as="geometry" />
        </mxCell>
        <mxCell id="bvYGP_05jQYxHPNjV4Q_-19" value="Weight" style="ellipse;whiteSpace=wrap;html=1;align=center;strokeColor=#FFFFFF;fillColor=none;fontColor=#FFFFFF;" parent="bvYGP_05jQYxHPNjV4Q_-1" vertex="1">
          <mxGeometry x="620" y="350" width="100" height="40" as="geometry" />
        </mxCell>
        <mxCell id="bvYGP_05jQYxHPNjV4Q_-20" value="" style="endArrow=none;html=1;dashed=1;dashPattern=1 1;strokeColor=#FFFFFF;fontColor=#FFFFFF;" parent="bvYGP_05jQYxHPNjV4Q_-1" source="bvYGP_05jQYxHPNjV4Q_-14" target="bvYGP_05jQYxHPNjV4Q_-15" edge="1">
          <mxGeometry width="50" height="50" relative="1" as="geometry">
            <mxPoint x="520" y="180" as="sourcePoint" />
            <mxPoint x="570" y="130" as="targetPoint" />
          </mxGeometry>
        </mxCell>
        <mxCell id="bvYGP_05jQYxHPNjV4Q_-21" value="" style="endArrow=none;html=1;dashed=1;dashPattern=1 1;strokeColor=#FFFFFF;fontColor=#FFFFFF;" parent="bvYGP_05jQYxHPNjV4Q_-1" source="bvYGP_05jQYxHPNjV4Q_-14" target="bvYGP_05jQYxHPNjV4Q_-16" edge="1">
          <mxGeometry width="50" height="50" relative="1" as="geometry">
            <mxPoint x="543.3333333333334" y="240" as="sourcePoint" />
            <mxPoint x="433.5294117647045" y="157.64705882352825" as="targetPoint" />
          </mxGeometry>
        </mxCell>
        <mxCell id="bvYGP_05jQYxHPNjV4Q_-22" value="" style="endArrow=none;html=1;dashed=1;dashPattern=1 1;strokeColor=#FFFFFF;fontColor=#FFFFFF;" parent="bvYGP_05jQYxHPNjV4Q_-1" source="bvYGP_05jQYxHPNjV4Q_-14" target="bvYGP_05jQYxHPNjV4Q_-17" edge="1">
          <mxGeometry width="50" height="50" relative="1" as="geometry">
            <mxPoint x="520" y="241.25" as="sourcePoint" />
            <mxPoint x="446.4768602070029" y="213.67882257762597" as="targetPoint" />
          </mxGeometry>
        </mxCell>
        <mxCell id="bvYGP_05jQYxHPNjV4Q_-23" value="" style="endArrow=none;html=1;dashed=1;dashPattern=1 1;strokeColor=#FFFFFF;fontColor=#FFFFFF;" parent="bvYGP_05jQYxHPNjV4Q_-1" source="bvYGP_05jQYxHPNjV4Q_-14" target="bvYGP_05jQYxHPNjV4Q_-18" edge="1">
          <mxGeometry width="50" height="50" relative="1" as="geometry">
            <mxPoint x="530" y="251.25" as="sourcePoint" />
            <mxPoint x="459.27300578721747" y="256.60186166984704" as="targetPoint" />
          </mxGeometry>
        </mxCell>
        <mxCell id="bvYGP_05jQYxHPNjV4Q_-24" value="" style="endArrow=none;html=1;dashed=1;dashPattern=1 1;strokeColor=#FFFFFF;fontColor=#FFFFFF;" parent="bvYGP_05jQYxHPNjV4Q_-1" source="bvYGP_05jQYxHPNjV4Q_-14" target="bvYGP_05jQYxHPNjV4Q_-19" edge="1">
          <mxGeometry width="50" height="50" relative="1" as="geometry">
            <mxPoint x="540" y="261.25" as="sourcePoint" />
            <mxPoint x="469.27300578721747" y="266.60186166984704" as="targetPoint" />
          </mxGeometry>
        </mxCell>
        <mxCell id="bvYGP_05jQYxHPNjV4Q_-25" value="Chip ID" style="ellipse;whiteSpace=wrap;html=1;align=center;fontStyle=4;strokeColor=#FFFFFF;fillColor=none;fontColor=#FFFFFF;" parent="bvYGP_05jQYxHPNjV4Q_-1" vertex="1">
          <mxGeometry x="40" y="40" width="100" height="40" as="geometry" />
        </mxCell>
        <mxCell id="bvYGP_05jQYxHPNjV4Q_-26" value="" style="endArrow=none;html=1;dashed=1;dashPattern=1 1;strokeColor=#FFFFFF;fontColor=#FFFFFF;" parent="bvYGP_05jQYxHPNjV4Q_-1" source="bvYGP_05jQYxHPNjV4Q_-2" target="bvYGP_05jQYxHPNjV4Q_-25" edge="1">
          <mxGeometry width="50" height="50" relative="1" as="geometry">
            <mxPoint x="216.66666666666674" y="230" as="sourcePoint" />
            <mxPoint x="121.14427326655482" y="148.12366279990408" as="targetPoint" />
          </mxGeometry>
        </mxCell>
        <mxCell id="bvYGP_05jQYxHPNjV4Q_-27" value="" style="endArrow=none;html=1;dashed=1;dashPattern=1 1;strokeColor=#FFFFFF;fontColor=#FFFFFF;" parent="bvYGP_05jQYxHPNjV4Q_-1" source="bvYGP_05jQYxHPNjV4Q_-14" target="bvYGP_05jQYxHPNjV4Q_-28" edge="1">
          <mxGeometry width="50" height="50" relative="1" as="geometry">
            <mxPoint x="563.3333333333333" y="240" as="sourcePoint" />
            <mxPoint x="651" y="80" as="targetPoint" />
          </mxGeometry>
        </mxCell>
        <mxCell id="bvYGP_05jQYxHPNjV4Q_-28" value="Social Security Number" style="ellipse;whiteSpace=wrap;html=1;align=center;fontStyle=4;strokeColor=#FFFFFF;fillColor=none;fontColor=#FFFFFF;" parent="bvYGP_05jQYxHPNjV4Q_-1" vertex="1">
          <mxGeometry x="620" y="50" width="100" height="40" as="geometry" />
        </mxCell>
        <mxCell id="bvYGP_05jQYxHPNjV4Q_-31" value="Owns" style="shape=rhombus;perimeter=rhombusPerimeter;whiteSpace=wrap;html=1;align=center;strokeColor=#FFFFFF;fillColor=none;fontColor=#FFFFFF;" parent="bvYGP_05jQYxHPNjV4Q_-1" vertex="1">
          <mxGeometry x="320" y="180" width="120" height="60" as="geometry" />
        </mxCell>
        <mxCell id="bvYGP_05jQYxHPNjV4Q_-32" value="" style="endArrow=none;html=1;dashed=1;dashPattern=1 1;strokeColor=#FFFFFF;fontColor=#FFFFFF;entryX=0;entryY=0.5;entryDx=0;entryDy=0;" parent="bvYGP_05jQYxHPNjV4Q_-1" source="bvYGP_05jQYxHPNjV4Q_-2" target="bvYGP_05jQYxHPNjV4Q_-31" edge="1">
          <mxGeometry width="50" height="50" relative="1" as="geometry">
            <mxPoint x="277.4999999999998" y="240.00000000000023" as="sourcePoint" />
            <mxPoint x="360.96774193548345" y="284.51612903225805" as="targetPoint" />
          </mxGeometry>
        </mxCell>
        <mxCell id="bvYGP_05jQYxHPNjV4Q_-33" value="" style="endArrow=none;html=1;dashed=1;dashPattern=1 1;strokeColor=#FFFFFF;fontColor=#FFFFFF;entryX=1;entryY=0.5;entryDx=0;entryDy=0;" parent="bvYGP_05jQYxHPNjV4Q_-1" source="bvYGP_05jQYxHPNjV4Q_-14" target="bvYGP_05jQYxHPNjV4Q_-31" edge="1">
          <mxGeometry width="50" height="50" relative="1" as="geometry">
            <mxPoint x="269.9999999999998" y="200.00000000000023" as="sourcePoint" />
            <mxPoint x="364.2857142857142" y="137.1428571428571" as="targetPoint" />
          </mxGeometry>
        </mxCell>
        <mxCell id="_oiNv1voT7NBTlwxmMAq-0" value="Dog" style="whiteSpace=wrap;html=1;align=center;strokeColor=#FFFFFF;fillColor=none;fontColor=#FFFFFF;" parent="bvYGP_05jQYxHPNjV4Q_-1" vertex="1">
          <mxGeometry x="180" y="670" width="100" height="40" as="geometry" />
        </mxCell>
        <mxCell id="_oiNv1voT7NBTlwxmMAq-1" value="Bites" style="shape=rhombus;perimeter=rhombusPerimeter;whiteSpace=wrap;html=1;align=center;strokeColor=#FFFFFF;fillColor=none;fontColor=#FFFFFF;" parent="bvYGP_05jQYxHPNjV4Q_-1" vertex="1">
          <mxGeometry x="320" y="740" width="120" height="60" as="geometry" />
        </mxCell>
        <mxCell id="_oiNv1voT7NBTlwxmMAq-2" value="Name" style="ellipse;whiteSpace=wrap;html=1;align=center;strokeColor=#FFFFFF;fillColor=none;fontColor=#FFFFFF;" parent="bvYGP_05jQYxHPNjV4Q_-1" vertex="1">
          <mxGeometry x="40" y="580" width="100" height="40" as="geometry" />
        </mxCell>
        <mxCell id="_oiNv1voT7NBTlwxmMAq-3" value="Age" style="ellipse;whiteSpace=wrap;html=1;align=center;strokeColor=#FFFFFF;fillColor=none;fontColor=#FFFFFF;" parent="bvYGP_05jQYxHPNjV4Q_-1" vertex="1">
          <mxGeometry x="40" y="640" width="100" height="40" as="geometry" />
        </mxCell>
        <mxCell id="_oiNv1voT7NBTlwxmMAq-4" value="Breed" style="ellipse;whiteSpace=wrap;html=1;align=center;strokeColor=#FFFFFF;fillColor=none;fontColor=#FFFFFF;" parent="bvYGP_05jQYxHPNjV4Q_-1" vertex="1">
          <mxGeometry x="40" y="700" width="100" height="40" as="geometry" />
        </mxCell>
        <mxCell id="_oiNv1voT7NBTlwxmMAq-5" value="Sex" style="ellipse;whiteSpace=wrap;html=1;align=center;strokeColor=#FFFFFF;fillColor=none;fontColor=#FFFFFF;" parent="bvYGP_05jQYxHPNjV4Q_-1" vertex="1">
          <mxGeometry x="40" y="760" width="100" height="40" as="geometry" />
        </mxCell>
        <mxCell id="_oiNv1voT7NBTlwxmMAq-6" value="Fur color" style="ellipse;whiteSpace=wrap;html=1;align=center;strokeColor=#FFFFFF;fillColor=none;fontColor=#FFFFFF;" parent="bvYGP_05jQYxHPNjV4Q_-1" vertex="1">
          <mxGeometry x="40" y="820" width="100" height="40" as="geometry" />
        </mxCell>
        <mxCell id="_oiNv1voT7NBTlwxmMAq-7" value="" style="endArrow=none;html=1;dashed=1;dashPattern=1 1;strokeColor=#FFFFFF;fontColor=#FFFFFF;" parent="bvYGP_05jQYxHPNjV4Q_-1" source="_oiNv1voT7NBTlwxmMAq-0" target="_oiNv1voT7NBTlwxmMAq-2" edge="1">
          <mxGeometry width="50" height="50" relative="1" as="geometry">
            <mxPoint x="210" y="650" as="sourcePoint" />
            <mxPoint x="260" y="600" as="targetPoint" />
          </mxGeometry>
        </mxCell>
        <mxCell id="_oiNv1voT7NBTlwxmMAq-8" value="" style="endArrow=none;html=1;dashed=1;dashPattern=1 1;strokeColor=#FFFFFF;fontColor=#FFFFFF;" parent="bvYGP_05jQYxHPNjV4Q_-1" source="_oiNv1voT7NBTlwxmMAq-0" target="_oiNv1voT7NBTlwxmMAq-3" edge="1">
          <mxGeometry width="50" height="50" relative="1" as="geometry">
            <mxPoint x="233.33333333333337" y="710" as="sourcePoint" />
            <mxPoint x="123.52941176470449" y="627.6470588235283" as="targetPoint" />
          </mxGeometry>
        </mxCell>
        <mxCell id="_oiNv1voT7NBTlwxmMAq-9" value="" style="endArrow=none;html=1;dashed=1;dashPattern=1 1;strokeColor=#FFFFFF;fontColor=#FFFFFF;" parent="bvYGP_05jQYxHPNjV4Q_-1" source="_oiNv1voT7NBTlwxmMAq-0" target="_oiNv1voT7NBTlwxmMAq-4" edge="1">
          <mxGeometry width="50" height="50" relative="1" as="geometry">
            <mxPoint x="210" y="711.25" as="sourcePoint" />
            <mxPoint x="136.47686020700291" y="683.678822577626" as="targetPoint" />
          </mxGeometry>
        </mxCell>
        <mxCell id="_oiNv1voT7NBTlwxmMAq-10" value="" style="endArrow=none;html=1;dashed=1;dashPattern=1 1;strokeColor=#FFFFFF;fontColor=#FFFFFF;" parent="bvYGP_05jQYxHPNjV4Q_-1" source="_oiNv1voT7NBTlwxmMAq-0" target="_oiNv1voT7NBTlwxmMAq-5" edge="1">
          <mxGeometry width="50" height="50" relative="1" as="geometry">
            <mxPoint x="220" y="721.25" as="sourcePoint" />
            <mxPoint x="149.27300578721747" y="726.601861669847" as="targetPoint" />
          </mxGeometry>
        </mxCell>
        <mxCell id="_oiNv1voT7NBTlwxmMAq-11" value="" style="endArrow=none;html=1;dashed=1;dashPattern=1 1;strokeColor=#FFFFFF;fontColor=#FFFFFF;" parent="bvYGP_05jQYxHPNjV4Q_-1" source="_oiNv1voT7NBTlwxmMAq-0" target="_oiNv1voT7NBTlwxmMAq-6" edge="1">
          <mxGeometry width="50" height="50" relative="1" as="geometry">
            <mxPoint x="230" y="731.25" as="sourcePoint" />
            <mxPoint x="159.27300578721747" y="736.601861669847" as="targetPoint" />
          </mxGeometry>
        </mxCell>
        <mxCell id="_oiNv1voT7NBTlwxmMAq-12" value="Person" style="whiteSpace=wrap;html=1;align=center;strokeColor=#FFFFFF;fillColor=none;fontColor=#FFFFFF;" parent="bvYGP_05jQYxHPNjV4Q_-1" vertex="1">
          <mxGeometry x="480" y="670" width="100" height="40" as="geometry" />
        </mxCell>
        <mxCell id="_oiNv1voT7NBTlwxmMAq-13" value="Name" style="ellipse;whiteSpace=wrap;html=1;align=center;strokeColor=#FFFFFF;fillColor=none;fontColor=#FFFFFF;" parent="bvYGP_05jQYxHPNjV4Q_-1" vertex="1">
          <mxGeometry x="620" y="590" width="100" height="40" as="geometry" />
        </mxCell>
        <mxCell id="_oiNv1voT7NBTlwxmMAq-14" value="Age" style="ellipse;whiteSpace=wrap;html=1;align=center;strokeColor=#FFFFFF;fillColor=none;fontColor=#FFFFFF;" parent="bvYGP_05jQYxHPNjV4Q_-1" vertex="1">
          <mxGeometry x="620" y="650" width="100" height="40" as="geometry" />
        </mxCell>
        <mxCell id="_oiNv1voT7NBTlwxmMAq-15" value="Sex" style="ellipse;whiteSpace=wrap;html=1;align=center;strokeColor=#FFFFFF;fillColor=none;fontColor=#FFFFFF;" parent="bvYGP_05jQYxHPNjV4Q_-1" vertex="1">
          <mxGeometry x="620" y="710" width="100" height="40" as="geometry" />
        </mxCell>
        <mxCell id="_oiNv1voT7NBTlwxmMAq-16" value="Height" style="ellipse;whiteSpace=wrap;html=1;align=center;strokeColor=#FFFFFF;fillColor=none;fontColor=#FFFFFF;" parent="bvYGP_05jQYxHPNjV4Q_-1" vertex="1">
          <mxGeometry x="620" y="770" width="100" height="40" as="geometry" />
        </mxCell>
        <mxCell id="_oiNv1voT7NBTlwxmMAq-17" value="Weight" style="ellipse;whiteSpace=wrap;html=1;align=center;strokeColor=#FFFFFF;fillColor=none;fontColor=#FFFFFF;" parent="bvYGP_05jQYxHPNjV4Q_-1" vertex="1">
          <mxGeometry x="620" y="830" width="100" height="40" as="geometry" />
        </mxCell>
        <mxCell id="_oiNv1voT7NBTlwxmMAq-18" value="" style="endArrow=none;html=1;dashed=1;dashPattern=1 1;strokeColor=#FFFFFF;fontColor=#FFFFFF;" parent="bvYGP_05jQYxHPNjV4Q_-1" source="_oiNv1voT7NBTlwxmMAq-12" target="_oiNv1voT7NBTlwxmMAq-13" edge="1">
          <mxGeometry width="50" height="50" relative="1" as="geometry">
            <mxPoint x="520" y="660" as="sourcePoint" />
            <mxPoint x="570" y="610" as="targetPoint" />
          </mxGeometry>
        </mxCell>
        <mxCell id="_oiNv1voT7NBTlwxmMAq-19" value="" style="endArrow=none;html=1;dashed=1;dashPattern=1 1;strokeColor=#FFFFFF;fontColor=#FFFFFF;" parent="bvYGP_05jQYxHPNjV4Q_-1" source="_oiNv1voT7NBTlwxmMAq-12" target="_oiNv1voT7NBTlwxmMAq-14" edge="1">
          <mxGeometry width="50" height="50" relative="1" as="geometry">
            <mxPoint x="543.3333333333334" y="720" as="sourcePoint" />
            <mxPoint x="433.5294117647045" y="637.6470588235283" as="targetPoint" />
          </mxGeometry>
        </mxCell>
        <mxCell id="_oiNv1voT7NBTlwxmMAq-20" value="" style="endArrow=none;html=1;dashed=1;dashPattern=1 1;strokeColor=#FFFFFF;fontColor=#FFFFFF;" parent="bvYGP_05jQYxHPNjV4Q_-1" source="_oiNv1voT7NBTlwxmMAq-12" target="_oiNv1voT7NBTlwxmMAq-15" edge="1">
          <mxGeometry width="50" height="50" relative="1" as="geometry">
            <mxPoint x="520" y="721.25" as="sourcePoint" />
            <mxPoint x="446.4768602070029" y="693.678822577626" as="targetPoint" />
          </mxGeometry>
        </mxCell>
        <mxCell id="_oiNv1voT7NBTlwxmMAq-21" value="" style="endArrow=none;html=1;dashed=1;dashPattern=1 1;strokeColor=#FFFFFF;fontColor=#FFFFFF;" parent="bvYGP_05jQYxHPNjV4Q_-1" source="_oiNv1voT7NBTlwxmMAq-12" target="_oiNv1voT7NBTlwxmMAq-16" edge="1">
          <mxGeometry width="50" height="50" relative="1" as="geometry">
            <mxPoint x="530" y="731.25" as="sourcePoint" />
            <mxPoint x="459.27300578721747" y="736.601861669847" as="targetPoint" />
          </mxGeometry>
        </mxCell>
        <mxCell id="_oiNv1voT7NBTlwxmMAq-22" value="" style="endArrow=none;html=1;dashed=1;dashPattern=1 1;strokeColor=#FFFFFF;fontColor=#FFFFFF;" parent="bvYGP_05jQYxHPNjV4Q_-1" source="_oiNv1voT7NBTlwxmMAq-12" target="_oiNv1voT7NBTlwxmMAq-17" edge="1">
          <mxGeometry width="50" height="50" relative="1" as="geometry">
            <mxPoint x="540" y="741.25" as="sourcePoint" />
            <mxPoint x="469.27300578721747" y="746.601861669847" as="targetPoint" />
          </mxGeometry>
        </mxCell>
        <mxCell id="_oiNv1voT7NBTlwxmMAq-23" value="Chip ID" style="ellipse;whiteSpace=wrap;html=1;align=center;fontStyle=4;strokeColor=#FFFFFF;fillColor=none;fontColor=#FFFFFF;" parent="bvYGP_05jQYxHPNjV4Q_-1" vertex="1">
          <mxGeometry x="40" y="520" width="100" height="40" as="geometry" />
        </mxCell>
        <mxCell id="_oiNv1voT7NBTlwxmMAq-24" value="" style="endArrow=none;html=1;dashed=1;dashPattern=1 1;strokeColor=#FFFFFF;fontColor=#FFFFFF;" parent="bvYGP_05jQYxHPNjV4Q_-1" source="_oiNv1voT7NBTlwxmMAq-0" target="_oiNv1voT7NBTlwxmMAq-23" edge="1">
          <mxGeometry width="50" height="50" relative="1" as="geometry">
            <mxPoint x="216.66666666666674" y="710" as="sourcePoint" />
            <mxPoint x="121.14427326655482" y="628.1236627999041" as="targetPoint" />
          </mxGeometry>
        </mxCell>
        <mxCell id="_oiNv1voT7NBTlwxmMAq-25" value="" style="endArrow=none;html=1;dashed=1;dashPattern=1 1;strokeColor=#FFFFFF;fontColor=#FFFFFF;" parent="bvYGP_05jQYxHPNjV4Q_-1" source="_oiNv1voT7NBTlwxmMAq-12" target="_oiNv1voT7NBTlwxmMAq-26" edge="1">
          <mxGeometry width="50" height="50" relative="1" as="geometry">
            <mxPoint x="563.3333333333333" y="720" as="sourcePoint" />
            <mxPoint x="651" y="560" as="targetPoint" />
          </mxGeometry>
        </mxCell>
        <mxCell id="_oiNv1voT7NBTlwxmMAq-26" value="Social Security Number" style="ellipse;whiteSpace=wrap;html=1;align=center;fontStyle=4;strokeColor=#FFFFFF;fillColor=none;fontColor=#FFFFFF;" parent="bvYGP_05jQYxHPNjV4Q_-1" vertex="1">
          <mxGeometry x="620" y="530" width="100" height="40" as="geometry" />
        </mxCell>
        <mxCell id="_oiNv1voT7NBTlwxmMAq-27" value="" style="endArrow=none;html=1;dashed=1;dashPattern=1 1;strokeColor=#FFFFFF;fontColor=#FFFFFF;entryX=0;entryY=0.5;entryDx=0;entryDy=0;" parent="bvYGP_05jQYxHPNjV4Q_-1" source="_oiNv1voT7NBTlwxmMAq-0" target="_oiNv1voT7NBTlwxmMAq-1" edge="1">
          <mxGeometry width="50" height="50" relative="1" as="geometry">
            <mxPoint x="270" y="650" as="sourcePoint" />
            <mxPoint x="320" y="600" as="targetPoint" />
          </mxGeometry>
        </mxCell>
        <mxCell id="_oiNv1voT7NBTlwxmMAq-28" value="" style="endArrow=none;html=1;dashed=1;dashPattern=1 1;strokeColor=#FFFFFF;fontColor=#FFFFFF;exitX=1;exitY=0.5;exitDx=0;exitDy=0;" parent="bvYGP_05jQYxHPNjV4Q_-1" source="_oiNv1voT7NBTlwxmMAq-1" target="_oiNv1voT7NBTlwxmMAq-12" edge="1">
          <mxGeometry width="50" height="50" relative="1" as="geometry">
            <mxPoint x="290" y="700" as="sourcePoint" />
            <mxPoint x="330" y="700" as="targetPoint" />
          </mxGeometry>
        </mxCell>
        <mxCell id="_oiNv1voT7NBTlwxmMAq-29" value="Owns" style="shape=rhombus;perimeter=rhombusPerimeter;whiteSpace=wrap;html=1;align=center;strokeColor=#FFFFFF;fillColor=none;fontColor=#FFFFFF;" parent="bvYGP_05jQYxHPNjV4Q_-1" vertex="1">
          <mxGeometry x="320" y="560" width="120" height="60" as="geometry" />
        </mxCell>
        <mxCell id="_oiNv1voT7NBTlwxmMAq-30" value="" style="endArrow=none;html=1;dashed=1;dashPattern=1 1;strokeColor=#FFFFFF;fontColor=#FFFFFF;entryX=0;entryY=0.5;entryDx=0;entryDy=0;" parent="bvYGP_05jQYxHPNjV4Q_-1" source="_oiNv1voT7NBTlwxmMAq-0" target="_oiNv1voT7NBTlwxmMAq-29" edge="1">
          <mxGeometry width="50" height="50" relative="1" as="geometry">
            <mxPoint x="277.4999999999998" y="720.0000000000002" as="sourcePoint" />
            <mxPoint x="360.96774193548345" y="764.516129032258" as="targetPoint" />
          </mxGeometry>
        </mxCell>
        <mxCell id="_oiNv1voT7NBTlwxmMAq-31" value="" style="endArrow=none;html=1;dashed=1;dashPattern=1 1;strokeColor=#FFFFFF;fontColor=#FFFFFF;entryX=1;entryY=0.5;entryDx=0;entryDy=0;" parent="bvYGP_05jQYxHPNjV4Q_-1" source="_oiNv1voT7NBTlwxmMAq-12" target="_oiNv1voT7NBTlwxmMAq-29" edge="1">
          <mxGeometry width="50" height="50" relative="1" as="geometry">
            <mxPoint x="269.9999999999998" y="680.0000000000002" as="sourcePoint" />
            <mxPoint x="364.2857142857142" y="617.1428571428571" as="targetPoint" />
          </mxGeometry>
        </mxCell>
        <mxCell id="sqYCb5PSZVE5MFwcgdLD-0" value="Dog" style="whiteSpace=wrap;html=1;align=center;strokeColor=#FFFFFF;fillColor=none;fontColor=#FFFFFF;" parent="bvYGP_05jQYxHPNjV4Q_-1" vertex="1">
          <mxGeometry x="328" y="1030" width="100" height="40" as="geometry" />
        </mxCell>
        <mxCell id="sqYCb5PSZVE5MFwcgdLD-1" value="Eats" style="shape=rhombus;perimeter=rhombusPerimeter;whiteSpace=wrap;html=1;align=center;strokeColor=#FFFFFF;fillColor=none;fontColor=#FFFFFF;" parent="bvYGP_05jQYxHPNjV4Q_-1" vertex="1">
          <mxGeometry x="320" y="910" width="120" height="60" as="geometry" />
        </mxCell>
        <mxCell id="sqYCb5PSZVE5MFwcgdLD-2" value="" style="endArrow=none;html=1;dashed=1;dashPattern=1 1;strokeColor=#FFFFFF;fontColor=#FFFFFF;entryX=0;entryY=0.5;entryDx=0;entryDy=0;exitX=0;exitY=0;exitDx=0;exitDy=0;" parent="bvYGP_05jQYxHPNjV4Q_-1" source="sqYCb5PSZVE5MFwcgdLD-0" target="sqYCb5PSZVE5MFwcgdLD-1" edge="1">
          <mxGeometry width="50" height="50" relative="1" as="geometry">
            <mxPoint x="425.4999999999998" y="1080.0000000000002" as="sourcePoint" />
            <mxPoint x="508.96774193548345" y="1124.516129032258" as="targetPoint" />
          </mxGeometry>
        </mxCell>
        <mxCell id="sqYCb5PSZVE5MFwcgdLD-3" value="" style="endArrow=none;html=1;dashed=1;dashPattern=1 1;strokeColor=#FFFFFF;fontColor=#FFFFFF;entryX=1;entryY=0.5;entryDx=0;entryDy=0;exitX=1;exitY=0;exitDx=0;exitDy=0;" parent="bvYGP_05jQYxHPNjV4Q_-1" source="sqYCb5PSZVE5MFwcgdLD-0" target="sqYCb5PSZVE5MFwcgdLD-1" edge="1">
          <mxGeometry width="50" height="50" relative="1" as="geometry">
            <mxPoint x="660" y="1030.0000000000002" as="sourcePoint" />
            <mxPoint x="512.2857142857142" y="977.1428571428571" as="targetPoint" />
          </mxGeometry>
        </mxCell>
      </root>
    </mxGraphModel>
  </diagram>
  <diagram name="Cardinality" id="XzGUDduIAus42WusO9PC">
    <mxGraphModel dx="1050" dy="621" grid="1" gridSize="10" guides="1" tooltips="1" connect="1" arrows="1" fold="1" page="1" pageScale="1" pageWidth="850" pageHeight="1100" background="#000000" math="0" shadow="0" extFonts="Permanent Marker^https://fonts.googleapis.com/css?family=Permanent+Marker">
      <root>
        <mxCell id="6xgz0-SXkUy2ECgjSvAP-0" />
        <mxCell id="6xgz0-SXkUy2ECgjSvAP-1" parent="6xgz0-SXkUy2ECgjSvAP-0" />
        <mxCell id="6xgz0-SXkUy2ECgjSvAP-34" value="Dog" style="whiteSpace=wrap;html=1;align=center;strokeColor=#FFFFFF;fillColor=none;fontColor=#FFFFFF;" parent="6xgz0-SXkUy2ECgjSvAP-1" vertex="1">
          <mxGeometry x="88" y="160" width="100" height="40" as="geometry" />
        </mxCell>
        <mxCell id="6xgz0-SXkUy2ECgjSvAP-35" value="Eats" style="shape=rhombus;perimeter=rhombusPerimeter;whiteSpace=wrap;html=1;align=center;strokeColor=#FFFFFF;fillColor=none;fontColor=#FFFFFF;" parent="6xgz0-SXkUy2ECgjSvAP-1" vertex="1">
          <mxGeometry x="80" y="40" width="120" height="60" as="geometry" />
        </mxCell>
        <mxCell id="6xgz0-SXkUy2ECgjSvAP-36" value="" style="endArrow=none;html=1;dashed=1;dashPattern=1 1;strokeColor=#FFFFFF;fontColor=#FFFFFF;entryX=0;entryY=0.5;entryDx=0;entryDy=0;exitX=0;exitY=0;exitDx=0;exitDy=0;" parent="6xgz0-SXkUy2ECgjSvAP-1" source="6xgz0-SXkUy2ECgjSvAP-34" target="6xgz0-SXkUy2ECgjSvAP-35" edge="1">
          <mxGeometry width="50" height="50" relative="1" as="geometry">
            <mxPoint x="185.49999999999977" y="210.00000000000023" as="sourcePoint" />
            <mxPoint x="268.96774193548345" y="254.51612903225805" as="targetPoint" />
          </mxGeometry>
        </mxCell>
        <mxCell id="Bxhf7ZY1RS0iAzRQfagt-8" value="&lt;span style=&quot;background-color: rgb(0 , 0 , 0)&quot;&gt;M&lt;/span&gt;" style="edgeLabel;html=1;align=center;verticalAlign=middle;resizable=0;points=[];fontColor=#FFFFFF;" parent="6xgz0-SXkUy2ECgjSvAP-36" vertex="1" connectable="0">
          <mxGeometry x="0.6962" y="1" relative="1" as="geometry">
            <mxPoint x="7.79" y="66.35" as="offset" />
          </mxGeometry>
        </mxCell>
        <mxCell id="6xgz0-SXkUy2ECgjSvAP-37" value="" style="endArrow=none;html=1;dashed=1;dashPattern=1 1;strokeColor=#FFFFFF;fontColor=#FFFFFF;entryX=1;entryY=0.5;entryDx=0;entryDy=0;exitX=1;exitY=0;exitDx=0;exitDy=0;" parent="6xgz0-SXkUy2ECgjSvAP-1" source="6xgz0-SXkUy2ECgjSvAP-34" target="6xgz0-SXkUy2ECgjSvAP-35" edge="1">
          <mxGeometry width="50" height="50" relative="1" as="geometry">
            <mxPoint x="420" y="160.00000000000023" as="sourcePoint" />
            <mxPoint x="272.2857142857142" y="107.14285714285711" as="targetPoint" />
          </mxGeometry>
        </mxCell>
        <mxCell id="Bxhf7ZY1RS0iAzRQfagt-6" value="&lt;span style=&quot;background-color: rgb(0 , 0 , 0)&quot;&gt;1&lt;/span&gt;" style="edgeLabel;html=1;align=center;verticalAlign=middle;resizable=0;points=[];fontColor=#FFFFFF;" parent="6xgz0-SXkUy2ECgjSvAP-37" vertex="1" connectable="0">
          <mxGeometry x="0.5575" y="-1" relative="1" as="geometry">
            <mxPoint as="offset" />
          </mxGeometry>
        </mxCell>
        <mxCell id="6xgz0-SXkUy2ECgjSvAP-38" value="Entity" style="whiteSpace=wrap;html=1;align=center;strokeColor=#FFFFFF;fillColor=none;fontColor=#FFFFFF;" parent="6xgz0-SXkUy2ECgjSvAP-1" vertex="1">
          <mxGeometry x="365.5" y="50" width="100" height="40" as="geometry" />
        </mxCell>
        <mxCell id="6xgz0-SXkUy2ECgjSvAP-39" value="Relationship" style="shape=rhombus;perimeter=rhombusPerimeter;whiteSpace=wrap;html=1;align=center;strokeColor=#FFFFFF;fillColor=none;fontColor=#FFFFFF;" parent="6xgz0-SXkUy2ECgjSvAP-1" vertex="1">
          <mxGeometry x="497.5" y="40" width="120" height="60" as="geometry" />
        </mxCell>
        <mxCell id="6xgz0-SXkUy2ECgjSvAP-40" value="Entity" style="whiteSpace=wrap;html=1;align=center;strokeColor=#FFFFFF;fillColor=none;fontColor=#FFFFFF;" parent="6xgz0-SXkUy2ECgjSvAP-1" vertex="1">
          <mxGeometry x="657.5" y="50" width="100" height="40" as="geometry" />
        </mxCell>
        <mxCell id="6xgz0-SXkUy2ECgjSvAP-41" value="" style="endArrow=none;html=1;rounded=0;dashed=1;dashPattern=1 1;strokeColor=#FFFFFF;fontColor=#FFFFFF;" parent="6xgz0-SXkUy2ECgjSvAP-1" source="6xgz0-SXkUy2ECgjSvAP-38" target="6xgz0-SXkUy2ECgjSvAP-39" edge="1">
          <mxGeometry relative="1" as="geometry">
            <mxPoint x="517.5" as="sourcePoint" />
            <mxPoint x="677.5" as="targetPoint" />
          </mxGeometry>
        </mxCell>
        <mxCell id="6xgz0-SXkUy2ECgjSvAP-42" value="&lt;font color=&quot;#ffffff&quot;&gt;M&lt;/font&gt;" style="resizable=0;html=1;align=left;verticalAlign=bottom;" parent="6xgz0-SXkUy2ECgjSvAP-41" connectable="0" vertex="1">
          <mxGeometry x="-1" relative="1" as="geometry">
            <mxPoint x="5" as="offset" />
          </mxGeometry>
        </mxCell>
        <mxCell id="6xgz0-SXkUy2ECgjSvAP-43" value="" style="resizable=0;html=1;align=right;verticalAlign=bottom;fontColor=#FFFFFF;" parent="6xgz0-SXkUy2ECgjSvAP-41" connectable="0" vertex="1">
          <mxGeometry x="1" relative="1" as="geometry" />
        </mxCell>
        <mxCell id="6xgz0-SXkUy2ECgjSvAP-44" value="" style="endArrow=none;html=1;rounded=0;dashed=1;dashPattern=1 1;strokeColor=#FFFFFF;fontColor=#FFFFFF;" parent="6xgz0-SXkUy2ECgjSvAP-1" source="6xgz0-SXkUy2ECgjSvAP-39" target="6xgz0-SXkUy2ECgjSvAP-40" edge="1">
          <mxGeometry relative="1" as="geometry">
            <mxPoint x="475.5" y="80" as="sourcePoint" />
            <mxPoint x="507.5" y="80" as="targetPoint" />
          </mxGeometry>
        </mxCell>
        <mxCell id="6xgz0-SXkUy2ECgjSvAP-45" value="" style="resizable=0;html=1;align=left;verticalAlign=bottom;" parent="6xgz0-SXkUy2ECgjSvAP-44" connectable="0" vertex="1">
          <mxGeometry x="-1" relative="1" as="geometry" />
        </mxCell>
        <mxCell id="6xgz0-SXkUy2ECgjSvAP-46" value="N" style="resizable=0;html=1;align=right;verticalAlign=bottom;fontColor=#FFFFFF;" parent="6xgz0-SXkUy2ECgjSvAP-44" connectable="0" vertex="1">
          <mxGeometry x="1" relative="1" as="geometry">
            <mxPoint x="-7" as="offset" />
          </mxGeometry>
        </mxCell>
        <mxCell id="6xgz0-SXkUy2ECgjSvAP-47" value="Cyclops" style="whiteSpace=wrap;html=1;align=center;strokeColor=#FFFFFF;fillColor=none;fontColor=#FFFFFF;" parent="6xgz0-SXkUy2ECgjSvAP-1" vertex="1">
          <mxGeometry x="365.5" y="170" width="100" height="40" as="geometry" />
        </mxCell>
        <mxCell id="6xgz0-SXkUy2ECgjSvAP-48" value="has" style="shape=rhombus;perimeter=rhombusPerimeter;whiteSpace=wrap;html=1;align=center;strokeColor=#FFFFFF;fillColor=none;fontColor=#FFFFFF;" parent="6xgz0-SXkUy2ECgjSvAP-1" vertex="1">
          <mxGeometry x="497.5" y="160" width="120" height="60" as="geometry" />
        </mxCell>
        <mxCell id="6xgz0-SXkUy2ECgjSvAP-49" value="Eye" style="whiteSpace=wrap;html=1;align=center;strokeColor=#FFFFFF;fillColor=none;fontColor=#FFFFFF;" parent="6xgz0-SXkUy2ECgjSvAP-1" vertex="1">
          <mxGeometry x="657.5" y="170" width="100" height="40" as="geometry" />
        </mxCell>
        <mxCell id="6xgz0-SXkUy2ECgjSvAP-50" value="" style="endArrow=none;html=1;rounded=0;dashed=1;dashPattern=1 1;strokeColor=#FFFFFF;fontColor=#FFFFFF;" parent="6xgz0-SXkUy2ECgjSvAP-1" source="6xgz0-SXkUy2ECgjSvAP-47" target="6xgz0-SXkUy2ECgjSvAP-48" edge="1">
          <mxGeometry relative="1" as="geometry">
            <mxPoint x="517.5" y="120" as="sourcePoint" />
            <mxPoint x="677.5" y="120" as="targetPoint" />
          </mxGeometry>
        </mxCell>
        <mxCell id="6xgz0-SXkUy2ECgjSvAP-51" value="&lt;font color=&quot;#ffffff&quot;&gt;1&lt;/font&gt;" style="resizable=0;html=1;align=left;verticalAlign=bottom;" parent="6xgz0-SXkUy2ECgjSvAP-50" connectable="0" vertex="1">
          <mxGeometry x="-1" relative="1" as="geometry">
            <mxPoint x="5" as="offset" />
          </mxGeometry>
        </mxCell>
        <mxCell id="6xgz0-SXkUy2ECgjSvAP-52" value="" style="resizable=0;html=1;align=right;verticalAlign=bottom;fontColor=#FFFFFF;" parent="6xgz0-SXkUy2ECgjSvAP-50" connectable="0" vertex="1">
          <mxGeometry x="1" relative="1" as="geometry" />
        </mxCell>
        <mxCell id="6xgz0-SXkUy2ECgjSvAP-53" value="" style="endArrow=none;html=1;rounded=0;dashed=1;dashPattern=1 1;strokeColor=#FFFFFF;fontColor=#FFFFFF;" parent="6xgz0-SXkUy2ECgjSvAP-1" source="6xgz0-SXkUy2ECgjSvAP-48" target="6xgz0-SXkUy2ECgjSvAP-49" edge="1">
          <mxGeometry relative="1" as="geometry">
            <mxPoint x="475.5" y="200" as="sourcePoint" />
            <mxPoint x="507.5" y="200" as="targetPoint" />
          </mxGeometry>
        </mxCell>
        <mxCell id="6xgz0-SXkUy2ECgjSvAP-54" value="" style="resizable=0;html=1;align=left;verticalAlign=bottom;" parent="6xgz0-SXkUy2ECgjSvAP-53" connectable="0" vertex="1">
          <mxGeometry x="-1" relative="1" as="geometry" />
        </mxCell>
        <mxCell id="6xgz0-SXkUy2ECgjSvAP-55" value="1" style="resizable=0;html=1;align=right;verticalAlign=bottom;fontColor=#FFFFFF;" parent="6xgz0-SXkUy2ECgjSvAP-53" connectable="0" vertex="1">
          <mxGeometry x="1" relative="1" as="geometry">
            <mxPoint x="-7" as="offset" />
          </mxGeometry>
        </mxCell>
        <mxCell id="6xgz0-SXkUy2ECgjSvAP-56" value="Graeae" style="whiteSpace=wrap;html=1;align=center;strokeColor=#FFFFFF;fillColor=none;fontColor=#FFFFFF;" parent="6xgz0-SXkUy2ECgjSvAP-1" vertex="1">
          <mxGeometry x="365.5" y="370" width="100" height="40" as="geometry" />
        </mxCell>
        <mxCell id="Bxhf7ZY1RS0iAzRQfagt-4" value="" style="edgeStyle=orthogonalEdgeStyle;rounded=0;orthogonalLoop=1;jettySize=auto;html=1;dashed=1;dashPattern=1 1;strokeColor=#FFFFFF;fontColor=#FFFFFF;" parent="6xgz0-SXkUy2ECgjSvAP-1" source="6xgz0-SXkUy2ECgjSvAP-57" target="6xgz0-SXkUy2ECgjSvAP-58" edge="1">
          <mxGeometry relative="1" as="geometry" />
        </mxCell>
        <mxCell id="6xgz0-SXkUy2ECgjSvAP-57" value="has" style="shape=rhombus;perimeter=rhombusPerimeter;whiteSpace=wrap;html=1;align=center;strokeColor=#FFFFFF;fillColor=none;fontColor=#FFFFFF;" parent="6xgz0-SXkUy2ECgjSvAP-1" vertex="1">
          <mxGeometry x="497.5" y="300" width="120" height="60" as="geometry" />
        </mxCell>
        <mxCell id="6xgz0-SXkUy2ECgjSvAP-58" value="Eye" style="whiteSpace=wrap;html=1;align=center;strokeColor=#FFFFFF;fillColor=none;fontColor=#FFFFFF;" parent="6xgz0-SXkUy2ECgjSvAP-1" vertex="1">
          <mxGeometry x="657.5" y="310" width="100" height="40" as="geometry" />
        </mxCell>
        <mxCell id="6xgz0-SXkUy2ECgjSvAP-59" value="" style="endArrow=none;html=1;rounded=0;dashed=1;dashPattern=1 1;strokeColor=#FFFFFF;fontColor=#FFFFFF;" parent="6xgz0-SXkUy2ECgjSvAP-1" source="6xgz0-SXkUy2ECgjSvAP-56" target="6xgz0-SXkUy2ECgjSvAP-57" edge="1">
          <mxGeometry relative="1" as="geometry">
            <mxPoint x="517.5" y="260" as="sourcePoint" />
            <mxPoint x="677.5" y="260" as="targetPoint" />
          </mxGeometry>
        </mxCell>
        <mxCell id="6xgz0-SXkUy2ECgjSvAP-60" value="&lt;font color=&quot;#ffffff&quot;&gt;M&lt;/font&gt;" style="resizable=0;html=1;align=left;verticalAlign=bottom;" parent="6xgz0-SXkUy2ECgjSvAP-59" connectable="0" vertex="1">
          <mxGeometry x="-1" relative="1" as="geometry">
            <mxPoint x="17" y="-10" as="offset" />
          </mxGeometry>
        </mxCell>
        <mxCell id="6xgz0-SXkUy2ECgjSvAP-61" value="" style="resizable=0;html=1;align=right;verticalAlign=bottom;fontColor=#FFFFFF;" parent="6xgz0-SXkUy2ECgjSvAP-59" connectable="0" vertex="1">
          <mxGeometry x="1" relative="1" as="geometry" />
        </mxCell>
        <mxCell id="6xgz0-SXkUy2ECgjSvAP-62" value="" style="endArrow=none;html=1;rounded=0;dashed=1;dashPattern=1 1;strokeColor=#FFFFFF;fontColor=#FFFFFF;" parent="6xgz0-SXkUy2ECgjSvAP-1" source="6xgz0-SXkUy2ECgjSvAP-57" target="6xgz0-SXkUy2ECgjSvAP-58" edge="1">
          <mxGeometry relative="1" as="geometry">
            <mxPoint x="475.5" y="340" as="sourcePoint" />
            <mxPoint x="507.5" y="340" as="targetPoint" />
          </mxGeometry>
        </mxCell>
        <mxCell id="6xgz0-SXkUy2ECgjSvAP-63" value="" style="resizable=0;html=1;align=left;verticalAlign=bottom;" parent="6xgz0-SXkUy2ECgjSvAP-62" connectable="0" vertex="1">
          <mxGeometry x="-1" relative="1" as="geometry" />
        </mxCell>
        <mxCell id="6xgz0-SXkUy2ECgjSvAP-64" value="1" style="resizable=0;html=1;align=right;verticalAlign=bottom;fontColor=#FFFFFF;" parent="6xgz0-SXkUy2ECgjSvAP-62" connectable="0" vertex="1">
          <mxGeometry x="1" relative="1" as="geometry">
            <mxPoint x="-7" as="offset" />
          </mxGeometry>
        </mxCell>
        <mxCell id="6xgz0-SXkUy2ECgjSvAP-65" value="has" style="shape=rhombus;perimeter=rhombusPerimeter;whiteSpace=wrap;html=1;align=center;strokeColor=#FFFFFF;fillColor=none;fontColor=#FFFFFF;" parent="6xgz0-SXkUy2ECgjSvAP-1" vertex="1">
          <mxGeometry x="492.16999999999996" y="410" width="120" height="60" as="geometry" />
        </mxCell>
        <mxCell id="6xgz0-SXkUy2ECgjSvAP-66" value="Tooth" style="whiteSpace=wrap;html=1;align=center;strokeColor=#FFFFFF;fillColor=none;fontColor=#FFFFFF;" parent="6xgz0-SXkUy2ECgjSvAP-1" vertex="1">
          <mxGeometry x="652.17" y="420" width="100" height="40" as="geometry" />
        </mxCell>
        <mxCell id="6xgz0-SXkUy2ECgjSvAP-67" value="" style="endArrow=none;html=1;rounded=0;dashed=1;dashPattern=1 1;strokeColor=#FFFFFF;fontColor=#FFFFFF;" parent="6xgz0-SXkUy2ECgjSvAP-1" edge="1">
          <mxGeometry relative="1" as="geometry">
            <mxPoint x="465.5" y="410.0022367747128" as="sourcePoint" />
            <mxPoint x="517.5217556090761" y="429.034122195462" as="targetPoint" />
          </mxGeometry>
        </mxCell>
        <mxCell id="6xgz0-SXkUy2ECgjSvAP-68" value="&lt;font color=&quot;#ffffff&quot;&gt;M&lt;/font&gt;" style="resizable=0;html=1;align=left;verticalAlign=bottom;" parent="6xgz0-SXkUy2ECgjSvAP-67" connectable="0" vertex="1">
          <mxGeometry x="-1" relative="1" as="geometry">
            <mxPoint x="5" as="offset" />
          </mxGeometry>
        </mxCell>
        <mxCell id="6xgz0-SXkUy2ECgjSvAP-69" value="" style="resizable=0;html=1;align=right;verticalAlign=bottom;fontColor=#FFFFFF;" parent="6xgz0-SXkUy2ECgjSvAP-67" connectable="0" vertex="1">
          <mxGeometry x="1" relative="1" as="geometry" />
        </mxCell>
        <mxCell id="6xgz0-SXkUy2ECgjSvAP-70" value="" style="endArrow=none;html=1;rounded=0;dashed=1;dashPattern=1 1;strokeColor=#FFFFFF;fontColor=#FFFFFF;" parent="6xgz0-SXkUy2ECgjSvAP-1" source="6xgz0-SXkUy2ECgjSvAP-65" target="6xgz0-SXkUy2ECgjSvAP-66" edge="1">
          <mxGeometry relative="1" as="geometry">
            <mxPoint x="470.17" y="450" as="sourcePoint" />
            <mxPoint x="502.16999999999996" y="450" as="targetPoint" />
          </mxGeometry>
        </mxCell>
        <mxCell id="6xgz0-SXkUy2ECgjSvAP-71" value="" style="resizable=0;html=1;align=left;verticalAlign=bottom;" parent="6xgz0-SXkUy2ECgjSvAP-70" connectable="0" vertex="1">
          <mxGeometry x="-1" relative="1" as="geometry" />
        </mxCell>
        <mxCell id="6xgz0-SXkUy2ECgjSvAP-72" value="1" style="resizable=0;html=1;align=right;verticalAlign=bottom;fontColor=#FFFFFF;" parent="6xgz0-SXkUy2ECgjSvAP-70" connectable="0" vertex="1">
          <mxGeometry x="1" relative="1" as="geometry">
            <mxPoint x="-7" as="offset" />
          </mxGeometry>
        </mxCell>
        <mxCell id="6xgz0-SXkUy2ECgjSvAP-73" value="Painter" style="whiteSpace=wrap;html=1;align=center;strokeColor=#FFFFFF;fillColor=none;fontColor=#FFFFFF;" parent="6xgz0-SXkUy2ECgjSvAP-1" vertex="1">
          <mxGeometry x="365.5" y="530" width="100" height="40" as="geometry" />
        </mxCell>
        <mxCell id="6xgz0-SXkUy2ECgjSvAP-74" value="paints" style="shape=rhombus;perimeter=rhombusPerimeter;whiteSpace=wrap;html=1;align=center;strokeColor=#FFFFFF;fillColor=none;fontColor=#FFFFFF;" parent="6xgz0-SXkUy2ECgjSvAP-1" vertex="1">
          <mxGeometry x="497.5" y="520" width="120" height="60" as="geometry" />
        </mxCell>
        <mxCell id="6xgz0-SXkUy2ECgjSvAP-75" value="Painting" style="whiteSpace=wrap;html=1;align=center;strokeColor=#FFFFFF;fillColor=none;fontColor=#FFFFFF;" parent="6xgz0-SXkUy2ECgjSvAP-1" vertex="1">
          <mxGeometry x="657.5" y="530" width="100" height="40" as="geometry" />
        </mxCell>
        <mxCell id="6xgz0-SXkUy2ECgjSvAP-76" value="" style="endArrow=none;html=1;rounded=0;dashed=1;dashPattern=1 1;strokeColor=#FFFFFF;fontColor=#FFFFFF;" parent="6xgz0-SXkUy2ECgjSvAP-1" source="6xgz0-SXkUy2ECgjSvAP-73" target="6xgz0-SXkUy2ECgjSvAP-74" edge="1">
          <mxGeometry relative="1" as="geometry">
            <mxPoint x="517.5" y="480" as="sourcePoint" />
            <mxPoint x="677.5" y="480" as="targetPoint" />
          </mxGeometry>
        </mxCell>
        <mxCell id="6xgz0-SXkUy2ECgjSvAP-77" value="&lt;font color=&quot;#ffffff&quot;&gt;1&lt;/font&gt;" style="resizable=0;html=1;align=left;verticalAlign=bottom;" parent="6xgz0-SXkUy2ECgjSvAP-76" connectable="0" vertex="1">
          <mxGeometry x="-1" relative="1" as="geometry">
            <mxPoint x="5" as="offset" />
          </mxGeometry>
        </mxCell>
        <mxCell id="6xgz0-SXkUy2ECgjSvAP-78" value="" style="resizable=0;html=1;align=right;verticalAlign=bottom;fontColor=#FFFFFF;" parent="6xgz0-SXkUy2ECgjSvAP-76" connectable="0" vertex="1">
          <mxGeometry x="1" relative="1" as="geometry" />
        </mxCell>
        <mxCell id="6xgz0-SXkUy2ECgjSvAP-79" value="" style="endArrow=none;html=1;rounded=0;dashed=1;dashPattern=1 1;strokeColor=#FFFFFF;fontColor=#FFFFFF;" parent="6xgz0-SXkUy2ECgjSvAP-1" source="6xgz0-SXkUy2ECgjSvAP-74" target="6xgz0-SXkUy2ECgjSvAP-75" edge="1">
          <mxGeometry relative="1" as="geometry">
            <mxPoint x="475.5" y="560" as="sourcePoint" />
            <mxPoint x="507.5" y="560" as="targetPoint" />
          </mxGeometry>
        </mxCell>
        <mxCell id="6xgz0-SXkUy2ECgjSvAP-80" value="" style="resizable=0;html=1;align=left;verticalAlign=bottom;" parent="6xgz0-SXkUy2ECgjSvAP-79" connectable="0" vertex="1">
          <mxGeometry x="-1" relative="1" as="geometry" />
        </mxCell>
        <mxCell id="6xgz0-SXkUy2ECgjSvAP-81" value="M" style="resizable=0;html=1;align=right;verticalAlign=bottom;fontColor=#FFFFFF;" parent="6xgz0-SXkUy2ECgjSvAP-79" connectable="0" vertex="1">
          <mxGeometry x="1" relative="1" as="geometry">
            <mxPoint x="-7" as="offset" />
          </mxGeometry>
        </mxCell>
        <mxCell id="6xgz0-SXkUy2ECgjSvAP-82" value="Painter" style="whiteSpace=wrap;html=1;align=center;strokeColor=#FFFFFF;fillColor=none;fontColor=#FFFFFF;" parent="6xgz0-SXkUy2ECgjSvAP-1" vertex="1">
          <mxGeometry x="365.5" y="650" width="100" height="40" as="geometry" />
        </mxCell>
        <mxCell id="6xgz0-SXkUy2ECgjSvAP-83" value="paints" style="shape=rhombus;perimeter=rhombusPerimeter;whiteSpace=wrap;html=1;align=center;strokeColor=#FFFFFF;fillColor=none;fontColor=#FFFFFF;" parent="6xgz0-SXkUy2ECgjSvAP-1" vertex="1">
          <mxGeometry x="497.5" y="640" width="120" height="60" as="geometry" />
        </mxCell>
        <mxCell id="6xgz0-SXkUy2ECgjSvAP-84" value="Painting" style="whiteSpace=wrap;html=1;align=center;strokeColor=#FFFFFF;fillColor=none;fontColor=#FFFFFF;" parent="6xgz0-SXkUy2ECgjSvAP-1" vertex="1">
          <mxGeometry x="657.5" y="650" width="100" height="40" as="geometry" />
        </mxCell>
        <mxCell id="6xgz0-SXkUy2ECgjSvAP-85" value="" style="endArrow=none;html=1;rounded=0;dashed=1;dashPattern=1 1;strokeColor=#FFFFFF;fontColor=#FFFFFF;" parent="6xgz0-SXkUy2ECgjSvAP-1" source="6xgz0-SXkUy2ECgjSvAP-82" target="6xgz0-SXkUy2ECgjSvAP-83" edge="1">
          <mxGeometry relative="1" as="geometry">
            <mxPoint x="517.5" y="600" as="sourcePoint" />
            <mxPoint x="677.5" y="600" as="targetPoint" />
          </mxGeometry>
        </mxCell>
        <mxCell id="6xgz0-SXkUy2ECgjSvAP-86" value="&lt;font color=&quot;#ffffff&quot;&gt;M&lt;/font&gt;" style="resizable=0;html=1;align=left;verticalAlign=bottom;" parent="6xgz0-SXkUy2ECgjSvAP-85" connectable="0" vertex="1">
          <mxGeometry x="-1" relative="1" as="geometry">
            <mxPoint x="5" as="offset" />
          </mxGeometry>
        </mxCell>
        <mxCell id="6xgz0-SXkUy2ECgjSvAP-87" value="" style="resizable=0;html=1;align=right;verticalAlign=bottom;fontColor=#FFFFFF;" parent="6xgz0-SXkUy2ECgjSvAP-85" connectable="0" vertex="1">
          <mxGeometry x="1" relative="1" as="geometry">
            <mxPoint x="-154.5" y="115" as="offset" />
          </mxGeometry>
        </mxCell>
        <mxCell id="6xgz0-SXkUy2ECgjSvAP-88" value="" style="endArrow=none;html=1;rounded=0;dashed=1;dashPattern=1 1;strokeColor=#FFFFFF;fontColor=#FFFFFF;" parent="6xgz0-SXkUy2ECgjSvAP-1" source="6xgz0-SXkUy2ECgjSvAP-83" target="6xgz0-SXkUy2ECgjSvAP-84" edge="1">
          <mxGeometry relative="1" as="geometry">
            <mxPoint x="475.5" y="680" as="sourcePoint" />
            <mxPoint x="507.5" y="680" as="targetPoint" />
          </mxGeometry>
        </mxCell>
        <mxCell id="6xgz0-SXkUy2ECgjSvAP-89" value="" style="resizable=0;html=1;align=left;verticalAlign=bottom;" parent="6xgz0-SXkUy2ECgjSvAP-88" connectable="0" vertex="1">
          <mxGeometry x="-1" relative="1" as="geometry">
            <mxPoint x="-154.5" y="115" as="offset" />
          </mxGeometry>
        </mxCell>
        <mxCell id="6xgz0-SXkUy2ECgjSvAP-90" value="N" style="resizable=0;html=1;align=right;verticalAlign=bottom;fontColor=#FFFFFF;" parent="6xgz0-SXkUy2ECgjSvAP-88" connectable="0" vertex="1">
          <mxGeometry x="1" relative="1" as="geometry">
            <mxPoint x="-7" as="offset" />
          </mxGeometry>
        </mxCell>
      </root>
    </mxGraphModel>
  </diagram>
  <diagram name="All in one" id="JmpKyY7rNiDonDug4nNS">
    <mxGraphModel dx="1050" dy="621" grid="1" gridSize="10" guides="1" tooltips="1" connect="1" arrows="1" fold="1" page="1" pageScale="1" pageWidth="850" pageHeight="1100" background="#000000" math="0" shadow="0" extFonts="Permanent Marker^https://fonts.googleapis.com/css?family=Permanent+Marker">
      <root>
        <mxCell id="mnYUARxSjos8eeQjVeQh-0" />
        <mxCell id="mnYUARxSjos8eeQjVeQh-1" parent="mnYUARxSjos8eeQjVeQh-0" />
        <mxCell id="mnYUARxSjos8eeQjVeQh-62" value="Painter" style="whiteSpace=wrap;html=1;align=center;strokeColor=#FFFFFF;fillColor=none;fontColor=#FFFFFF;" parent="mnYUARxSjos8eeQjVeQh-1" vertex="1">
          <mxGeometry x="205.5" y="270" width="100" height="40" as="geometry" />
        </mxCell>
        <mxCell id="mnYUARxSjos8eeQjVeQh-63" value="paints" style="shape=rhombus;perimeter=rhombusPerimeter;whiteSpace=wrap;html=1;align=center;strokeColor=#FFFFFF;fillColor=none;fontColor=#FFFFFF;" parent="mnYUARxSjos8eeQjVeQh-1" vertex="1">
          <mxGeometry x="337.5" y="260" width="120" height="60" as="geometry" />
        </mxCell>
        <mxCell id="mnYUARxSjos8eeQjVeQh-64" value="Painting" style="whiteSpace=wrap;html=1;align=center;strokeColor=#FFFFFF;fillColor=none;fontColor=#FFFFFF;" parent="mnYUARxSjos8eeQjVeQh-1" vertex="1">
          <mxGeometry x="497.5" y="270" width="100" height="40" as="geometry" />
        </mxCell>
        <mxCell id="mnYUARxSjos8eeQjVeQh-65" value="" style="endArrow=none;html=1;rounded=0;dashed=1;dashPattern=1 1;strokeColor=#FFFFFF;fontColor=#FFFFFF;" parent="mnYUARxSjos8eeQjVeQh-1" source="mnYUARxSjos8eeQjVeQh-62" target="mnYUARxSjos8eeQjVeQh-63" edge="1">
          <mxGeometry relative="1" as="geometry">
            <mxPoint x="357.5" y="220" as="sourcePoint" />
            <mxPoint x="517.5" y="220" as="targetPoint" />
          </mxGeometry>
        </mxCell>
        <mxCell id="mnYUARxSjos8eeQjVeQh-66" value="&lt;font color=&quot;#ffffff&quot;&gt;M&lt;/font&gt;" style="resizable=0;html=1;align=left;verticalAlign=bottom;" parent="mnYUARxSjos8eeQjVeQh-65" connectable="0" vertex="1">
          <mxGeometry x="-1" relative="1" as="geometry">
            <mxPoint x="5" as="offset" />
          </mxGeometry>
        </mxCell>
        <mxCell id="mnYUARxSjos8eeQjVeQh-67" value="" style="resizable=0;html=1;align=right;verticalAlign=bottom;fontColor=#FFFFFF;" parent="mnYUARxSjos8eeQjVeQh-65" connectable="0" vertex="1">
          <mxGeometry x="1" relative="1" as="geometry" />
        </mxCell>
        <mxCell id="mnYUARxSjos8eeQjVeQh-68" value="" style="endArrow=none;html=1;rounded=0;dashed=1;dashPattern=1 1;strokeColor=#FFFFFF;fontColor=#FFFFFF;" parent="mnYUARxSjos8eeQjVeQh-1" source="mnYUARxSjos8eeQjVeQh-63" target="mnYUARxSjos8eeQjVeQh-64" edge="1">
          <mxGeometry relative="1" as="geometry">
            <mxPoint x="315.5" y="300" as="sourcePoint" />
            <mxPoint x="347.5" y="300" as="targetPoint" />
          </mxGeometry>
        </mxCell>
        <mxCell id="mnYUARxSjos8eeQjVeQh-69" value="" style="resizable=0;html=1;align=left;verticalAlign=bottom;" parent="mnYUARxSjos8eeQjVeQh-68" connectable="0" vertex="1">
          <mxGeometry x="-1" relative="1" as="geometry" />
        </mxCell>
        <mxCell id="mnYUARxSjos8eeQjVeQh-70" value="N" style="resizable=0;html=1;align=right;verticalAlign=bottom;fontColor=#FFFFFF;" parent="mnYUARxSjos8eeQjVeQh-68" connectable="0" vertex="1">
          <mxGeometry x="1" relative="1" as="geometry">
            <mxPoint x="-7" as="offset" />
          </mxGeometry>
        </mxCell>
        <mxCell id="mnYUARxSjos8eeQjVeQh-71" value="Name" style="ellipse;whiteSpace=wrap;html=1;align=center;strokeColor=#FFFFFF;fillColor=none;fontColor=#FFFFFF;" parent="mnYUARxSjos8eeQjVeQh-1" vertex="1">
          <mxGeometry x="80" y="180" width="100" height="40" as="geometry" />
        </mxCell>
        <mxCell id="mnYUARxSjos8eeQjVeQh-72" value="Age" style="ellipse;whiteSpace=wrap;html=1;align=center;strokeColor=#FFFFFF;fillColor=none;fontColor=#FFFFFF;" parent="mnYUARxSjos8eeQjVeQh-1" vertex="1">
          <mxGeometry x="80" y="240" width="100" height="40" as="geometry" />
        </mxCell>
        <mxCell id="mnYUARxSjos8eeQjVeQh-73" value="Sex" style="ellipse;whiteSpace=wrap;html=1;align=center;strokeColor=#FFFFFF;fillColor=none;fontColor=#FFFFFF;" parent="mnYUARxSjos8eeQjVeQh-1" vertex="1">
          <mxGeometry x="80" y="300" width="100" height="40" as="geometry" />
        </mxCell>
        <mxCell id="mnYUARxSjos8eeQjVeQh-74" value="Height" style="ellipse;whiteSpace=wrap;html=1;align=center;strokeColor=#FFFFFF;fillColor=none;fontColor=#FFFFFF;" parent="mnYUARxSjos8eeQjVeQh-1" vertex="1">
          <mxGeometry x="80" y="360" width="100" height="40" as="geometry" />
        </mxCell>
        <mxCell id="mnYUARxSjos8eeQjVeQh-75" value="Weight" style="ellipse;whiteSpace=wrap;html=1;align=center;strokeColor=#FFFFFF;fillColor=none;fontColor=#FFFFFF;" parent="mnYUARxSjos8eeQjVeQh-1" vertex="1">
          <mxGeometry x="80" y="420" width="100" height="40" as="geometry" />
        </mxCell>
        <mxCell id="mnYUARxSjos8eeQjVeQh-76" value="" style="endArrow=none;html=1;dashed=1;dashPattern=1 1;strokeColor=#FFFFFF;fontColor=#FFFFFF;" parent="mnYUARxSjos8eeQjVeQh-1" source="mnYUARxSjos8eeQjVeQh-62" target="mnYUARxSjos8eeQjVeQh-71" edge="1">
          <mxGeometry width="50" height="50" relative="1" as="geometry">
            <mxPoint x="25" y="260" as="sourcePoint" />
            <mxPoint x="30" y="200" as="targetPoint" />
          </mxGeometry>
        </mxCell>
        <mxCell id="mnYUARxSjos8eeQjVeQh-77" value="" style="endArrow=none;html=1;dashed=1;dashPattern=1 1;strokeColor=#FFFFFF;fontColor=#FFFFFF;" parent="mnYUARxSjos8eeQjVeQh-1" source="mnYUARxSjos8eeQjVeQh-62" target="mnYUARxSjos8eeQjVeQh-72" edge="1">
          <mxGeometry width="50" height="50" relative="1" as="geometry">
            <mxPoint x="40" y="272.8571428571429" as="sourcePoint" />
            <mxPoint x="-106.47058823529551" y="227.64705882352837" as="targetPoint" />
          </mxGeometry>
        </mxCell>
        <mxCell id="mnYUARxSjos8eeQjVeQh-78" value="" style="endArrow=none;html=1;dashed=1;dashPattern=1 1;strokeColor=#FFFFFF;fontColor=#FFFFFF;" parent="mnYUARxSjos8eeQjVeQh-1" source="mnYUARxSjos8eeQjVeQh-62" target="mnYUARxSjos8eeQjVeQh-73" edge="1">
          <mxGeometry width="50" height="50" relative="1" as="geometry">
            <mxPoint x="40" y="294.2857142857142" as="sourcePoint" />
            <mxPoint x="-93.52313979299709" y="283.67882257762585" as="targetPoint" />
          </mxGeometry>
        </mxCell>
        <mxCell id="mnYUARxSjos8eeQjVeQh-79" value="" style="endArrow=none;html=1;dashed=1;dashPattern=1 1;strokeColor=#FFFFFF;fontColor=#FFFFFF;" parent="mnYUARxSjos8eeQjVeQh-1" source="mnYUARxSjos8eeQjVeQh-62" target="mnYUARxSjos8eeQjVeQh-74" edge="1">
          <mxGeometry width="50" height="50" relative="1" as="geometry">
            <mxPoint x="18" y="300" as="sourcePoint" />
            <mxPoint x="-80.72699421278253" y="326.60186166984704" as="targetPoint" />
          </mxGeometry>
        </mxCell>
        <mxCell id="mnYUARxSjos8eeQjVeQh-80" value="" style="endArrow=none;html=1;dashed=1;dashPattern=1 1;strokeColor=#FFFFFF;fontColor=#FFFFFF;" parent="mnYUARxSjos8eeQjVeQh-1" source="mnYUARxSjos8eeQjVeQh-62" target="mnYUARxSjos8eeQjVeQh-75" edge="1">
          <mxGeometry width="50" height="50" relative="1" as="geometry">
            <mxPoint x="7.5" y="300" as="sourcePoint" />
            <mxPoint x="-70.72699421278253" y="336.60186166984704" as="targetPoint" />
          </mxGeometry>
        </mxCell>
        <mxCell id="mnYUARxSjos8eeQjVeQh-81" value="" style="endArrow=none;html=1;dashed=1;dashPattern=1 1;strokeColor=#FFFFFF;fontColor=#FFFFFF;" parent="mnYUARxSjos8eeQjVeQh-1" source="mnYUARxSjos8eeQjVeQh-62" target="mnYUARxSjos8eeQjVeQh-82" edge="1">
          <mxGeometry width="50" height="50" relative="1" as="geometry">
            <mxPoint x="10" y="260" as="sourcePoint" />
            <mxPoint x="111" y="150" as="targetPoint" />
          </mxGeometry>
        </mxCell>
        <mxCell id="mnYUARxSjos8eeQjVeQh-82" value="Social Security Number" style="ellipse;whiteSpace=wrap;html=1;align=center;fontStyle=4;strokeColor=#FFFFFF;fillColor=none;fontColor=#FFFFFF;" parent="mnYUARxSjos8eeQjVeQh-1" vertex="1">
          <mxGeometry x="80" y="120" width="100" height="40" as="geometry" />
        </mxCell>
        <mxCell id="mnYUARxSjos8eeQjVeQh-83" value="Title" style="ellipse;whiteSpace=wrap;html=1;align=center;strokeColor=#FFFFFF;fillColor=none;fontColor=#FFFFFF;" parent="mnYUARxSjos8eeQjVeQh-1" vertex="1">
          <mxGeometry x="640" y="190" width="100" height="40" as="geometry" />
        </mxCell>
        <mxCell id="mnYUARxSjos8eeQjVeQh-84" value="Canvas type" style="ellipse;whiteSpace=wrap;html=1;align=center;strokeColor=#FFFFFF;fillColor=none;fontColor=#FFFFFF;" parent="mnYUARxSjos8eeQjVeQh-1" vertex="1">
          <mxGeometry x="640" y="250" width="100" height="40" as="geometry" />
        </mxCell>
        <mxCell id="mnYUARxSjos8eeQjVeQh-85" value="Paint type" style="ellipse;whiteSpace=wrap;html=1;align=center;strokeColor=#FFFFFF;fillColor=none;fontColor=#FFFFFF;" parent="mnYUARxSjos8eeQjVeQh-1" vertex="1">
          <mxGeometry x="640" y="310" width="100" height="40" as="geometry" />
        </mxCell>
        <mxCell id="mnYUARxSjos8eeQjVeQh-86" value="Width" style="ellipse;whiteSpace=wrap;html=1;align=center;strokeColor=#FFFFFF;fillColor=none;fontColor=#FFFFFF;" parent="mnYUARxSjos8eeQjVeQh-1" vertex="1">
          <mxGeometry x="640" y="370" width="100" height="40" as="geometry" />
        </mxCell>
        <mxCell id="mnYUARxSjos8eeQjVeQh-87" value="Height" style="ellipse;whiteSpace=wrap;html=1;align=center;strokeColor=#FFFFFF;fillColor=none;fontColor=#FFFFFF;" parent="mnYUARxSjos8eeQjVeQh-1" vertex="1">
          <mxGeometry x="640" y="430" width="100" height="40" as="geometry" />
        </mxCell>
        <mxCell id="mnYUARxSjos8eeQjVeQh-88" value="" style="endArrow=none;html=1;dashed=1;dashPattern=1 1;strokeColor=#FFFFFF;fontColor=#FFFFFF;" parent="mnYUARxSjos8eeQjVeQh-1" target="mnYUARxSjos8eeQjVeQh-83" edge="1">
          <mxGeometry width="50" height="50" relative="1" as="geometry">
            <mxPoint x="585" y="270" as="sourcePoint" />
            <mxPoint x="590" y="210" as="targetPoint" />
          </mxGeometry>
        </mxCell>
        <mxCell id="mnYUARxSjos8eeQjVeQh-89" value="" style="endArrow=none;html=1;dashed=1;dashPattern=1 1;strokeColor=#FFFFFF;fontColor=#FFFFFF;" parent="mnYUARxSjos8eeQjVeQh-1" target="mnYUARxSjos8eeQjVeQh-84" edge="1">
          <mxGeometry width="50" height="50" relative="1" as="geometry">
            <mxPoint x="600" y="282.8571428571429" as="sourcePoint" />
            <mxPoint x="453.5294117647045" y="237.64705882352837" as="targetPoint" />
          </mxGeometry>
        </mxCell>
        <mxCell id="mnYUARxSjos8eeQjVeQh-90" value="" style="endArrow=none;html=1;dashed=1;dashPattern=1 1;strokeColor=#FFFFFF;fontColor=#FFFFFF;" parent="mnYUARxSjos8eeQjVeQh-1" target="mnYUARxSjos8eeQjVeQh-85" edge="1">
          <mxGeometry width="50" height="50" relative="1" as="geometry">
            <mxPoint x="600" y="304.2857142857142" as="sourcePoint" />
            <mxPoint x="466.4768602070029" y="293.67882257762585" as="targetPoint" />
          </mxGeometry>
        </mxCell>
        <mxCell id="mnYUARxSjos8eeQjVeQh-91" value="" style="endArrow=none;html=1;dashed=1;dashPattern=1 1;strokeColor=#FFFFFF;fontColor=#FFFFFF;" parent="mnYUARxSjos8eeQjVeQh-1" target="mnYUARxSjos8eeQjVeQh-86" edge="1">
          <mxGeometry width="50" height="50" relative="1" as="geometry">
            <mxPoint x="578" y="310" as="sourcePoint" />
            <mxPoint x="479.27300578721747" y="336.60186166984704" as="targetPoint" />
          </mxGeometry>
        </mxCell>
        <mxCell id="mnYUARxSjos8eeQjVeQh-92" value="" style="endArrow=none;html=1;dashed=1;dashPattern=1 1;strokeColor=#FFFFFF;fontColor=#FFFFFF;" parent="mnYUARxSjos8eeQjVeQh-1" target="mnYUARxSjos8eeQjVeQh-87" edge="1">
          <mxGeometry width="50" height="50" relative="1" as="geometry">
            <mxPoint x="567.5" y="310" as="sourcePoint" />
            <mxPoint x="489.27300578721747" y="346.60186166984704" as="targetPoint" />
          </mxGeometry>
        </mxCell>
        <mxCell id="mnYUARxSjos8eeQjVeQh-93" value="" style="endArrow=none;html=1;dashed=1;dashPattern=1 1;strokeColor=#FFFFFF;fontColor=#FFFFFF;" parent="mnYUARxSjos8eeQjVeQh-1" target="mnYUARxSjos8eeQjVeQh-94" edge="1">
          <mxGeometry width="50" height="50" relative="1" as="geometry">
            <mxPoint x="570" y="270" as="sourcePoint" />
            <mxPoint x="671" y="160" as="targetPoint" />
          </mxGeometry>
        </mxCell>
        <mxCell id="mnYUARxSjos8eeQjVeQh-94" value="id" style="ellipse;whiteSpace=wrap;html=1;align=center;fontStyle=4;strokeColor=#FFFFFF;fillColor=none;fontColor=#FFFFFF;" parent="mnYUARxSjos8eeQjVeQh-1" vertex="1">
          <mxGeometry x="640" y="130" width="100" height="40" as="geometry" />
        </mxCell>
        <mxCell id="mnYUARxSjos8eeQjVeQh-95" value="Dog" style="whiteSpace=wrap;html=1;align=center;strokeColor=#FFFFFF;fillColor=none;fontColor=#FFFFFF;" parent="mnYUARxSjos8eeQjVeQh-1" vertex="1">
          <mxGeometry x="345.5" y="440" width="100" height="40" as="geometry" />
        </mxCell>
        <mxCell id="mnYUARxSjos8eeQjVeQh-96" value="Name" style="ellipse;whiteSpace=wrap;html=1;align=center;strokeColor=#FFFFFF;fillColor=none;fontColor=#FFFFFF;" parent="mnYUARxSjos8eeQjVeQh-1" vertex="1">
          <mxGeometry x="357.5" y="570" width="100" height="40" as="geometry" />
        </mxCell>
        <mxCell id="mnYUARxSjos8eeQjVeQh-97" value="Age" style="ellipse;whiteSpace=wrap;html=1;align=center;strokeColor=#FFFFFF;fillColor=none;fontColor=#FFFFFF;" parent="mnYUARxSjos8eeQjVeQh-1" vertex="1">
          <mxGeometry x="492.16999999999996" y="560" width="100" height="40" as="geometry" />
        </mxCell>
        <mxCell id="mnYUARxSjos8eeQjVeQh-98" value="Breed" style="ellipse;whiteSpace=wrap;html=1;align=center;strokeColor=#FFFFFF;fillColor=none;fontColor=#FFFFFF;" parent="mnYUARxSjos8eeQjVeQh-1" vertex="1">
          <mxGeometry x="197.5" y="520" width="100" height="40" as="geometry" />
        </mxCell>
        <mxCell id="mnYUARxSjos8eeQjVeQh-99" value="Sex" style="ellipse;whiteSpace=wrap;html=1;align=center;strokeColor=#FFFFFF;fillColor=none;fontColor=#FFFFFF;" parent="mnYUARxSjos8eeQjVeQh-1" vertex="1">
          <mxGeometry x="307.5" y="520" width="100" height="40" as="geometry" />
        </mxCell>
        <mxCell id="mnYUARxSjos8eeQjVeQh-100" value="Fur color" style="ellipse;whiteSpace=wrap;html=1;align=center;strokeColor=#FFFFFF;fillColor=none;fontColor=#FFFFFF;" parent="mnYUARxSjos8eeQjVeQh-1" vertex="1">
          <mxGeometry x="407.5" y="520" width="100" height="40" as="geometry" />
        </mxCell>
        <mxCell id="mnYUARxSjos8eeQjVeQh-101" value="" style="endArrow=none;html=1;dashed=1;dashPattern=1 1;strokeColor=#FFFFFF;fontColor=#FFFFFF;" parent="mnYUARxSjos8eeQjVeQh-1" source="mnYUARxSjos8eeQjVeQh-95" target="mnYUARxSjos8eeQjVeQh-96" edge="1">
          <mxGeometry width="50" height="50" relative="1" as="geometry">
            <mxPoint x="375.5" y="420" as="sourcePoint" />
            <mxPoint x="425.5" y="370" as="targetPoint" />
          </mxGeometry>
        </mxCell>
        <mxCell id="mnYUARxSjos8eeQjVeQh-102" value="" style="endArrow=none;html=1;dashed=1;dashPattern=1 1;strokeColor=#FFFFFF;fontColor=#FFFFFF;" parent="mnYUARxSjos8eeQjVeQh-1" source="mnYUARxSjos8eeQjVeQh-95" target="mnYUARxSjos8eeQjVeQh-97" edge="1">
          <mxGeometry width="50" height="50" relative="1" as="geometry">
            <mxPoint x="398.83333333333337" y="480" as="sourcePoint" />
            <mxPoint x="289.0294117647045" y="397.64705882352837" as="targetPoint" />
          </mxGeometry>
        </mxCell>
        <mxCell id="mnYUARxSjos8eeQjVeQh-103" value="" style="endArrow=none;html=1;dashed=1;dashPattern=1 1;strokeColor=#FFFFFF;fontColor=#FFFFFF;" parent="mnYUARxSjos8eeQjVeQh-1" source="mnYUARxSjos8eeQjVeQh-95" target="mnYUARxSjos8eeQjVeQh-98" edge="1">
          <mxGeometry width="50" height="50" relative="1" as="geometry">
            <mxPoint x="375.5" y="481.25" as="sourcePoint" />
            <mxPoint x="301.9768602070029" y="453.67882257762585" as="targetPoint" />
          </mxGeometry>
        </mxCell>
        <mxCell id="mnYUARxSjos8eeQjVeQh-104" value="" style="endArrow=none;html=1;dashed=1;dashPattern=1 1;strokeColor=#FFFFFF;fontColor=#FFFFFF;" parent="mnYUARxSjos8eeQjVeQh-1" source="mnYUARxSjos8eeQjVeQh-95" target="mnYUARxSjos8eeQjVeQh-99" edge="1">
          <mxGeometry width="50" height="50" relative="1" as="geometry">
            <mxPoint x="385.5" y="491.25" as="sourcePoint" />
            <mxPoint x="314.77300578721747" y="496.60186166984704" as="targetPoint" />
          </mxGeometry>
        </mxCell>
        <mxCell id="mnYUARxSjos8eeQjVeQh-105" value="" style="endArrow=none;html=1;dashed=1;dashPattern=1 1;strokeColor=#FFFFFF;fontColor=#FFFFFF;" parent="mnYUARxSjos8eeQjVeQh-1" source="mnYUARxSjos8eeQjVeQh-95" target="mnYUARxSjos8eeQjVeQh-100" edge="1">
          <mxGeometry width="50" height="50" relative="1" as="geometry">
            <mxPoint x="395.5" y="501.25" as="sourcePoint" />
            <mxPoint x="324.77300578721747" y="506.60186166984704" as="targetPoint" />
          </mxGeometry>
        </mxCell>
        <mxCell id="mnYUARxSjos8eeQjVeQh-106" value="Chip ID" style="ellipse;whiteSpace=wrap;html=1;align=center;fontStyle=4;strokeColor=#FFFFFF;fillColor=none;fontColor=#FFFFFF;" parent="mnYUARxSjos8eeQjVeQh-1" vertex="1">
          <mxGeometry x="237.5" y="570" width="100" height="40" as="geometry" />
        </mxCell>
        <mxCell id="mnYUARxSjos8eeQjVeQh-107" value="" style="endArrow=none;html=1;dashed=1;dashPattern=1 1;strokeColor=#FFFFFF;fontColor=#FFFFFF;" parent="mnYUARxSjos8eeQjVeQh-1" source="mnYUARxSjos8eeQjVeQh-95" target="mnYUARxSjos8eeQjVeQh-106" edge="1">
          <mxGeometry width="50" height="50" relative="1" as="geometry">
            <mxPoint x="382.16666666666674" y="480" as="sourcePoint" />
            <mxPoint x="286.6442732665548" y="398.1236627999042" as="targetPoint" />
          </mxGeometry>
        </mxCell>
        <mxCell id="mnYUARxSjos8eeQjVeQh-108" value="owns" style="shape=rhombus;perimeter=rhombusPerimeter;whiteSpace=wrap;html=1;align=center;strokeColor=#FFFFFF;fillColor=none;fontColor=#FFFFFF;" parent="mnYUARxSjos8eeQjVeQh-1" vertex="1">
          <mxGeometry x="247.49999999999994" y="350" width="120" height="60" as="geometry" />
        </mxCell>
        <mxCell id="mnYUARxSjos8eeQjVeQh-109" value="" style="endArrow=none;html=1;rounded=0;dashed=1;dashPattern=1 1;strokeColor=#FFFFFF;fontColor=#FFFFFF;exitX=0.5;exitY=1;exitDx=0;exitDy=0;entryX=0.5;entryY=0;entryDx=0;entryDy=0;" parent="mnYUARxSjos8eeQjVeQh-1" source="mnYUARxSjos8eeQjVeQh-62" target="mnYUARxSjos8eeQjVeQh-108" edge="1">
          <mxGeometry relative="1" as="geometry">
            <mxPoint x="315.5" y="300" as="sourcePoint" />
            <mxPoint x="347.5" y="300" as="targetPoint" />
          </mxGeometry>
        </mxCell>
        <mxCell id="mnYUARxSjos8eeQjVeQh-110" value="&lt;font color=&quot;#ffffff&quot;&gt;M&lt;/font&gt;" style="resizable=0;html=1;align=left;verticalAlign=bottom;" parent="mnYUARxSjos8eeQjVeQh-109" connectable="0" vertex="1">
          <mxGeometry x="-1" relative="1" as="geometry">
            <mxPoint x="22" y="20" as="offset" />
          </mxGeometry>
        </mxCell>
        <mxCell id="mnYUARxSjos8eeQjVeQh-111" value="" style="resizable=0;html=1;align=right;verticalAlign=bottom;fontColor=#FFFFFF;" parent="mnYUARxSjos8eeQjVeQh-109" connectable="0" vertex="1">
          <mxGeometry x="1" relative="1" as="geometry" />
        </mxCell>
        <mxCell id="mnYUARxSjos8eeQjVeQh-112" value="" style="endArrow=none;html=1;rounded=0;dashed=1;dashPattern=1 1;strokeColor=#FFFFFF;fontColor=#FFFFFF;exitX=0.5;exitY=1;exitDx=0;exitDy=0;" parent="mnYUARxSjos8eeQjVeQh-1" source="mnYUARxSjos8eeQjVeQh-108" edge="1">
          <mxGeometry relative="1" as="geometry">
            <mxPoint x="467.5" y="300" as="sourcePoint" />
            <mxPoint x="347.5" y="440" as="targetPoint" />
          </mxGeometry>
        </mxCell>
        <mxCell id="mnYUARxSjos8eeQjVeQh-113" value="" style="resizable=0;html=1;align=left;verticalAlign=bottom;" parent="mnYUARxSjos8eeQjVeQh-112" connectable="0" vertex="1">
          <mxGeometry x="-1" relative="1" as="geometry" />
        </mxCell>
        <mxCell id="mnYUARxSjos8eeQjVeQh-114" value="N" style="resizable=0;html=1;align=right;verticalAlign=bottom;fontColor=#FFFFFF;" parent="mnYUARxSjos8eeQjVeQh-112" connectable="0" vertex="1">
          <mxGeometry x="1" relative="1" as="geometry">
            <mxPoint x="9.530000000000001" y="-0.35" as="offset" />
          </mxGeometry>
        </mxCell>
        <mxCell id="mnYUARxSjos8eeQjVeQh-115" style="edgeStyle=orthogonalEdgeStyle;rounded=0;orthogonalLoop=1;jettySize=auto;html=1;exitX=0.5;exitY=1;exitDx=0;exitDy=0;entryX=0.3;entryY=0.75;entryDx=0;entryDy=0;entryPerimeter=0;dashed=1;dashPattern=1 1;strokeColor=#FFFFFF;fontColor=#FFFFFF;" parent="mnYUARxSjos8eeQjVeQh-1" source="mnYUARxSjos8eeQjVeQh-97" target="mnYUARxSjos8eeQjVeQh-97" edge="1">
          <mxGeometry relative="1" as="geometry" />
        </mxCell>
        <mxCell id="mnYUARxSjos8eeQjVeQh-116" value="tears up" style="shape=rhombus;perimeter=rhombusPerimeter;whiteSpace=wrap;html=1;align=center;strokeColor=#FFFFFF;fillColor=none;fontColor=#FFFFFF;" parent="mnYUARxSjos8eeQjVeQh-1" vertex="1">
          <mxGeometry x="437.5" y="360" width="120" height="60" as="geometry" />
        </mxCell>
        <mxCell id="mnYUARxSjos8eeQjVeQh-117" value="" style="endArrow=none;html=1;rounded=0;dashed=1;dashPattern=1 1;strokeColor=#FFFFFF;fontColor=#FFFFFF;exitX=0.617;exitY=0.9;exitDx=0;exitDy=0;entryX=1;entryY=0;entryDx=0;entryDy=0;exitPerimeter=0;" parent="mnYUARxSjos8eeQjVeQh-1" source="mnYUARxSjos8eeQjVeQh-116" target="mnYUARxSjos8eeQjVeQh-95" edge="1">
          <mxGeometry relative="1" as="geometry">
            <mxPoint x="317.5" y="420" as="sourcePoint" />
            <mxPoint x="357.5" y="450" as="targetPoint" />
          </mxGeometry>
        </mxCell>
        <mxCell id="mnYUARxSjos8eeQjVeQh-118" value="" style="resizable=0;html=1;align=left;verticalAlign=bottom;" parent="mnYUARxSjos8eeQjVeQh-117" connectable="0" vertex="1">
          <mxGeometry x="-1" relative="1" as="geometry" />
        </mxCell>
        <mxCell id="mnYUARxSjos8eeQjVeQh-119" value="1" style="resizable=0;html=1;align=right;verticalAlign=bottom;fontColor=#FFFFFF;" parent="mnYUARxSjos8eeQjVeQh-117" connectable="0" vertex="1">
          <mxGeometry x="1" relative="1" as="geometry">
            <mxPoint x="-7" as="offset" />
          </mxGeometry>
        </mxCell>
        <mxCell id="mnYUARxSjos8eeQjVeQh-120" value="" style="endArrow=none;html=1;rounded=0;dashed=1;dashPattern=1 1;strokeColor=#FFFFFF;fontColor=#FFFFFF;exitX=0.5;exitY=1;exitDx=0;exitDy=0;entryX=0.5;entryY=0;entryDx=0;entryDy=0;" parent="mnYUARxSjos8eeQjVeQh-1" source="mnYUARxSjos8eeQjVeQh-64" target="mnYUARxSjos8eeQjVeQh-116" edge="1">
          <mxGeometry relative="1" as="geometry">
            <mxPoint x="265.5" y="320" as="sourcePoint" />
            <mxPoint x="317.5" y="360" as="targetPoint" />
          </mxGeometry>
        </mxCell>
        <mxCell id="mnYUARxSjos8eeQjVeQh-121" value="&lt;font color=&quot;#ffffff&quot;&gt;M&lt;/font&gt;" style="resizable=0;html=1;align=left;verticalAlign=bottom;" parent="mnYUARxSjos8eeQjVeQh-120" connectable="0" vertex="1">
          <mxGeometry x="-1" relative="1" as="geometry">
            <mxPoint x="-30" y="20" as="offset" />
          </mxGeometry>
        </mxCell>
        <mxCell id="mnYUARxSjos8eeQjVeQh-122" value="" style="resizable=0;html=1;align=right;verticalAlign=bottom;fontColor=#FFFFFF;" parent="mnYUARxSjos8eeQjVeQh-120" connectable="0" vertex="1">
          <mxGeometry x="1" relative="1" as="geometry" />
        </mxCell>
      </root>
    </mxGraphModel>
  </diagram>
</mxfile>
